<svg width="342" height="52" viewBox="0 0 342 52" fill="none" xmlns="http://www.w3.org/2000/svg">
<path fill-rule="evenodd" clip-rule="evenodd" d="M0 26C0 11.6406 11.6406 0 26 0H316C330.359 0 342 11.6406 342 26C342 40.3594 330.359 52 316 52H26C11.6406 52 0 40.3594 0 26ZM51.4 36.51C53.65 36.51 55.45 36.15 57.4 35.52L58.03 31.35L54.67 33.21C53.59 33.48 52.57 33.57 51.7 33.57C47.92 33.57 45.31 31.02 45.31 25.86C45.31 20.76 47.95 18.48 51.37 18.48C52.3 18.48 53.41 18.57 54.52 18.84L57.91 20.67L57.28 16.53C55.39 15.93 53.29 15.54 51.04 15.54C45.31 15.54 41.2 19.17 41.2 25.95C41.2 32.73 45.37 36.51 51.4 36.51ZM67.9656 36.48C72.6156 36.48 76.0956 33.54 76.0956 28.56C76.0956 23.58 72.6456 20.67 67.9656 20.67C63.2856 20.67 59.8056 23.58 59.8056 28.56C59.8056 33.54 63.4056 36.48 67.9656 36.48ZM67.9356 33.78C65.4456 33.78 63.8256 32.1 63.8256 28.56C63.8256 24.99 65.4756 23.34 67.9656 23.34C70.4556 23.34 72.0756 24.99 72.0756 28.56C72.0756 32.1 70.4256 33.78 67.9356 33.78ZM89.5028 36H94.3328L93.7628 33.12V25.98C93.7628 22.92 91.7828 20.73 88.4528 20.73C85.8428 20.73 83.8928 22.17 83.1128 24.09V20.58L78.6728 21.9L79.4828 24.78V33.12L78.9128 36H83.7128L83.3228 33.12V27.51C83.3228 25.14 84.8528 23.64 86.8328 23.64C88.8128 23.64 89.9228 24.81 89.9228 26.79V33.12L89.5028 36ZM107.696 36H112.526L111.956 33.12V25.98C111.956 22.92 109.976 20.73 106.646 20.73C104.036 20.73 102.086 22.17 101.306 24.09V20.58L96.8662 21.9L97.6762 24.78V33.12L97.1062 36H101.906L101.516 33.12V27.51C101.516 25.14 103.046 23.64 105.026 23.64C107.006 23.64 108.116 24.81 108.116 26.79V33.12L107.696 36ZM130.3 28.02C130.3 23.58 127.27 20.67 122.89 20.67C118.51 20.67 115.06 23.7 115.06 28.59C115.06 34.11 119.05 36.48 123.58 36.48C126.34 36.48 128.2 35.79 129.22 35.31L129.64 32.82C127.84 33.48 126.49 33.78 124.18 33.78C121.3 33.78 119.41 32.43 119.02 29.7H130.18C130.24 29.22 130.3 28.65 130.3 28.02ZM122.86 23.34C125.02 23.34 126.4 24.75 126.61 27.24H119.05C119.41 24.6 120.85 23.34 122.86 23.34ZM140.732 36.48C142.622 36.48 144.662 35.94 145.952 35.22L146.402 32.49C144.752 33.33 143.192 33.78 141.542 33.78C138.542 33.78 136.892 31.98 136.892 28.5C136.892 25.11 138.572 23.16 141.122 23.16C141.782 23.16 142.502 23.25 143.162 23.43L146.252 24.93L145.712 21.51C144.572 21.03 142.652 20.67 140.942 20.67C135.752 20.67 132.872 23.88 132.872 28.56C132.872 33.36 135.572 36.48 140.732 36.48ZM154.87 36.42C156.52 36.42 157.69 36.09 158.77 35.73L159.22 32.97C157.96 33.3 156.94 33.48 156.1 33.48C154.96 33.48 154.33 32.85 154.33 31.74V23.58H159.01V21.15H154.33V17.46H153.67L150.37 20.76L147.79 23.31V23.58H150.52V32.13C150.52 34.89 152.02 36.42 154.87 36.42ZM171.479 36H175.949L179.459 24.69L182.939 36H187.199L192.419 21.15H188.369L188.129 23.73L185.249 32.76L181.709 21.15H177.479L173.909 32.79L171.029 23.73L170.789 21.15H166.019L171.479 36ZM198.617 36.45C201.317 36.45 202.847 34.89 203.417 33.6L203.747 36H207.947L207.017 32.97V27C207.017 22.59 204.557 20.67 200.087 20.67C197.807 20.67 196.037 21.03 194.837 21.36L194.267 25.08L197.387 23.64C197.867 23.52 198.497 23.4 199.337 23.4C201.917 23.4 203.237 24.69 203.237 26.79V28.17C202.397 27.42 200.957 26.52 198.707 26.52C195.407 26.52 193.367 28.77 193.367 31.56C193.367 34.32 195.437 36.45 198.617 36.45ZM200.027 33.87C198.347 33.87 197.237 32.85 197.237 31.41C197.237 29.97 198.257 28.95 199.937 28.95C201.107 28.95 202.307 29.4 203.267 30.21V30.45C203.267 32.58 201.737 33.87 200.027 33.87ZM210.454 36H215.404L214.864 33.12V14.73L210.214 16.08L211.024 18.96V33.12L210.454 36ZM218.189 36H223.139L222.599 33.12V14.73L217.949 16.08L218.759 18.96V33.12L218.189 36ZM240.983 28.02C240.983 23.58 237.953 20.67 233.573 20.67C229.193 20.67 225.743 23.7 225.743 28.59C225.743 34.11 229.733 36.48 234.263 36.48C237.023 36.48 238.883 35.79 239.903 35.31L240.323 32.82C238.523 33.48 237.173 33.78 234.863 33.78C231.983 33.78 230.093 32.43 229.703 29.7H240.863C240.923 29.22 240.983 28.65 240.983 28.02ZM233.543 23.34C235.703 23.34 237.083 24.75 237.293 27.24H229.733C230.093 24.6 231.533 23.34 233.543 23.34ZM249.265 36.42C250.915 36.42 252.085 36.09 253.165 35.73L253.615 32.97C252.355 33.3 251.335 33.48 250.495 33.48C249.355 33.48 248.725 32.85 248.725 31.74V23.58H253.405V21.15H248.725V17.46H248.065L244.765 20.76L242.185 23.31V23.58H244.915V32.13C244.915 34.89 246.415 36.42 249.265 36.42ZM271 39L302 26.5007L271 14L277 26.5L271 39Z" fill="white"/>
</svg>
