<svg width="710" height="710" viewBox="0 0 710 710" fill="none" xmlns="http://www.w3.org/2000/svg">
<path fill-rule="evenodd" clip-rule="evenodd" d="M355 710C551.061 710 710 551.061 710 355C710 158.939 551.061 0 355 0C158.939 0 0 158.939 0 355C0 551.061 158.939 710 355 710ZM172.517 370H123.527V367.7L154.692 323.195H136.867L124.447 327.91L126.632 313.075H174.932V315.375L143.767 359.88H162.397L174.817 355.165L172.517 370ZM207.167 370H188.652L190.837 358.96V304.68L187.732 293.64L205.557 288.465V358.96L207.167 370ZM247.532 370H226.142L223.152 360.225L207.742 337.685L221.082 321.7L224.992 313.075H245.347L223.497 336.995L247.532 370ZM318.461 349.53C318.461 363.1 307.421 372.07 287.181 372.07C275.675 371.968 267.143 369.883 260.949 368.368C260.148 368.172 259.386 367.986 258.661 367.815L256.246 351.83L269.586 359.19C275.566 360.915 280.856 361.835 286.376 361.835C297.416 361.835 302.936 357.695 302.936 351.025C302.936 344.355 298.681 341.02 283.961 337.11C264.756 332.05 256.821 325.495 256.821 312.96C256.821 300.425 267.056 291.685 287.181 291.685C296.496 291.685 304.546 292.95 313.631 295.365L315.931 310.66L302.936 303.99C298.106 302.61 293.391 301.92 288.331 301.92C278.556 301.92 272.346 305.715 272.346 311.695C272.346 317.675 275.796 321.24 290.516 325.15C310.296 330.325 318.461 336.995 318.461 349.53ZM384.03 367.01C379.085 369.77 371.265 371.84 364.02 371.84C344.24 371.84 333.89 359.88 333.89 341.48C333.89 323.54 344.93 311.235 364.825 311.235C371.38 311.235 378.74 312.615 383.11 314.455L385.18 327.565L373.335 321.815C370.805 321.125 368.045 320.78 365.515 320.78C355.74 320.78 349.3 328.255 349.3 341.25C349.3 354.59 355.625 361.49 367.125 361.49C373.45 361.49 379.43 359.765 385.755 356.545L384.03 367.01ZM460.371 341.48C460.371 360.57 447.031 371.84 429.206 371.84C411.726 371.84 397.926 360.57 397.926 341.48C397.926 322.39 411.266 311.235 429.206 311.235C447.146 311.235 460.371 322.39 460.371 341.48ZM413.336 341.48C413.336 355.05 419.546 361.49 429.091 361.49C438.636 361.49 444.961 355.05 444.961 341.48C444.961 327.795 438.751 321.47 429.206 321.47C419.661 321.47 413.336 327.795 413.336 341.48ZM492.216 329.06C494.976 318.02 501.531 311.465 512.801 311.465C513.491 311.465 514.411 311.465 515.101 311.58L514.986 326.3L514.671 326.225L514.434 326.168L514.433 326.168C512.299 325.656 510.667 325.265 508.546 325.265C501.531 325.265 493.826 329.635 493.826 343.205V358.96L497.391 370H476.921L479.106 358.96V326.99L476.001 315.95L492.446 310.89L492.216 329.06ZM555.452 311.235C572.242 311.235 583.857 322.39 583.857 339.41C583.857 341.825 583.627 344.01 583.397 345.85H540.617C542.112 356.315 549.357 361.49 560.397 361.49C569.252 361.49 574.427 360.34 581.327 357.81L579.717 367.355C575.807 369.195 568.677 371.84 558.097 371.84C540.732 371.84 525.437 362.755 525.437 341.595C525.437 322.85 538.662 311.235 555.452 311.235ZM569.712 336.42C568.907 326.875 563.617 321.47 555.337 321.47C547.632 321.47 542.112 326.3 540.732 336.42H569.712ZM179 469C179 451.879 192.879 438 210 438H500C517.121 438 531 451.879 531 469C531 486.121 517.121 500 500 500H210C192.879 500 179 486.121 179 469ZM368.416 186.711C375.078 184.547 380.883 180.329 385 174.662L358.167 155.167L385 135.672C380.883 130.005 375.078 125.788 368.416 123.623C361.755 121.459 354.579 121.459 347.918 123.623C341.257 125.788 335.451 130.005 331.334 135.672C327.217 141.339 325 148.163 325 155.167C325 162.171 327.217 168.996 331.334 174.662C335.451 180.329 341.257 184.547 347.918 186.711C354.579 188.875 361.755 188.875 368.416 186.711ZM335.573 175.688C341.016 181.131 348.397 184.188 356.094 184.188V169.263H330.726C332.024 171.599 333.65 173.765 335.573 175.688ZM327.073 155.167C327.073 158.734 327.73 162.234 328.976 165.504L351.853 144.388H329.149C327.79 147.784 327.073 151.438 327.073 155.167ZM356.094 155.167V144.986L333.388 165.946H356.094V155.167ZM330.726 141.071H356.094V126.146C348.397 126.146 341.016 129.203 335.573 134.646C333.65 136.569 332.024 138.735 330.726 141.071Z" fill="white"/>
</svg>
