<svg width="718" height="718" viewBox="0 0 718 718" fill="none" xmlns="http://www.w3.org/2000/svg">
<path fill-rule="evenodd" clip-rule="evenodd" d="M188 469C188 454.641 199.641 443 214 443H504C518.359 443 530 454.641 530 469C530 483.359 518.359 495 504 495H214C199.641 495 188 483.359 188 469ZM239.4 479.51C241.65 479.51 243.45 479.15 245.4 478.52L246.03 474.35L242.67 476.21C241.59 476.48 240.57 476.57 239.7 476.57C235.92 476.57 233.31 474.02 233.31 468.86C233.31 463.76 235.95 461.48 239.37 461.48C240.3 461.48 241.41 461.57 242.52 461.84L245.91 463.67L245.28 459.53C243.39 458.93 241.29 458.54 239.04 458.54C233.31 458.54 229.2 462.17 229.2 468.95C229.2 475.73 233.37 479.51 239.4 479.51ZM255.966 479.48C260.616 479.48 264.096 476.54 264.096 471.56C264.096 466.58 260.646 463.67 255.966 463.67C251.286 463.67 247.806 466.58 247.806 471.56C247.806 476.54 251.406 479.48 255.966 479.48ZM255.936 476.78C253.446 476.78 251.826 475.1 251.826 471.56C251.826 467.99 253.476 466.34 255.966 466.34C258.456 466.34 260.076 467.99 260.076 471.56C260.076 475.1 258.426 476.78 255.936 476.78ZM277.503 479H282.333L281.763 476.12V468.98C281.763 465.92 279.783 463.73 276.453 463.73C273.843 463.73 271.893 465.17 271.113 467.09V463.58L266.673 464.9L267.483 467.78V476.12L266.913 479H271.713L271.323 476.12V470.51C271.323 468.14 272.853 466.64 274.833 466.64C276.813 466.64 277.923 467.81 277.923 469.79V476.12L277.503 479ZM295.696 479H300.526L299.956 476.12V468.98C299.956 465.92 297.976 463.73 294.646 463.73C292.036 463.73 290.086 465.17 289.306 467.09V463.58L284.866 464.9L285.676 467.78V476.12L285.106 479H289.906L289.516 476.12V470.51C289.516 468.14 291.046 466.64 293.026 466.64C295.006 466.64 296.116 467.81 296.116 469.79V476.12L295.696 479ZM318.3 471.02C318.3 466.58 315.27 463.67 310.89 463.67C306.51 463.67 303.06 466.7 303.06 471.59C303.06 477.11 307.05 479.48 311.58 479.48C314.34 479.48 316.2 478.79 317.22 478.31L317.64 475.82C315.84 476.48 314.49 476.78 312.18 476.78C309.3 476.78 307.41 475.43 307.02 472.7H318.18C318.24 472.22 318.3 471.65 318.3 471.02ZM310.86 466.34C313.02 466.34 314.4 467.75 314.61 470.24H307.05C307.41 467.6 308.85 466.34 310.86 466.34ZM328.732 479.48C330.622 479.48 332.662 478.94 333.952 478.22L334.402 475.49C332.752 476.33 331.192 476.78 329.542 476.78C326.542 476.78 324.892 474.98 324.892 471.5C324.892 468.11 326.572 466.16 329.122 466.16C329.782 466.16 330.502 466.25 331.162 466.43L334.252 467.93L333.712 464.51C332.572 464.03 330.652 463.67 328.942 463.67C323.752 463.67 320.872 466.88 320.872 471.56C320.872 476.36 323.572 479.48 328.732 479.48ZM342.87 479.42C344.52 479.42 345.69 479.09 346.77 478.73L347.22 475.97C345.96 476.3 344.94 476.48 344.1 476.48C342.96 476.48 342.33 475.85 342.33 474.74V466.58H347.01V464.15H342.33V460.46H341.67L338.37 463.76L335.79 466.31V466.58H338.52V475.13C338.52 477.89 340.02 479.42 342.87 479.42ZM359.479 479H363.949L367.459 467.69L370.939 479H375.199L380.419 464.15H376.369L376.129 466.73L373.249 475.76L369.709 464.15H365.479L361.909 475.79L359.029 466.73L358.789 464.15H354.019L359.479 479ZM386.617 479.45C389.317 479.45 390.847 477.89 391.417 476.6L391.747 479H395.947L395.017 475.97V470C395.017 465.59 392.557 463.67 388.087 463.67C385.807 463.67 384.037 464.03 382.837 464.36L382.267 468.08L385.387 466.64C385.867 466.52 386.497 466.4 387.337 466.4C389.917 466.4 391.237 467.69 391.237 469.79V471.17C390.397 470.42 388.957 469.52 386.707 469.52C383.407 469.52 381.367 471.77 381.367 474.56C381.367 477.32 383.437 479.45 386.617 479.45ZM388.027 476.87C386.347 476.87 385.237 475.85 385.237 474.41C385.237 472.97 386.257 471.95 387.937 471.95C389.107 471.95 390.307 472.4 391.267 473.21V473.45C391.267 475.58 389.737 476.87 388.027 476.87ZM398.454 479H403.404L402.864 476.12V457.73L398.214 459.08L399.024 461.96V476.12L398.454 479ZM406.189 479H411.139L410.599 476.12V457.73L405.949 459.08L406.759 461.96V476.12L406.189 479ZM428.983 471.02C428.983 466.58 425.953 463.67 421.573 463.67C417.193 463.67 413.743 466.7 413.743 471.59C413.743 477.11 417.733 479.48 422.263 479.48C425.023 479.48 426.883 478.79 427.903 478.31L428.323 475.82C426.523 476.48 425.173 476.78 422.863 476.78C419.983 476.78 418.093 475.43 417.703 472.7H428.863C428.923 472.22 428.983 471.65 428.983 471.02ZM421.543 466.34C423.703 466.34 425.083 467.75 425.293 470.24H417.733C418.093 467.6 419.533 466.34 421.543 466.34ZM437.265 479.42C438.915 479.42 440.085 479.09 441.165 478.73L441.615 475.97C440.355 476.3 439.335 476.48 438.495 476.48C437.355 476.48 436.725 475.85 436.725 474.74V466.58H441.405V464.15H436.725V460.46H436.065L432.765 463.76L430.185 466.31V466.58H432.915V475.13C432.915 477.89 434.415 479.42 437.265 479.42ZM459 482L490 469.501L459 457L465 469.5L459 482Z" fill="white"/>
<g filter="url(#filter0_d_201_80)">
<path fill-rule="evenodd" clip-rule="evenodd" d="M359 710C555.061 710 714 551.061 714 355C714 158.939 555.061 0 359 0C162.939 0 4 158.939 4 355C4 551.061 162.939 710 359 710ZM176.517 370H127.527V367.7L158.692 323.195H140.867L128.447 327.91L130.632 313.075H178.932V315.375L147.767 359.88H166.397L178.817 355.165L176.517 370ZM211.167 370H192.652L194.837 358.96V304.68L191.732 293.64L209.557 288.465V358.96L211.167 370ZM251.532 370H230.142L227.152 360.225L211.742 337.685L225.082 321.7L228.992 313.075H249.347L227.497 336.995L251.532 370ZM322.461 349.53C322.461 363.1 311.421 372.07 291.181 372.07C279.675 371.968 271.143 369.883 264.949 368.368C264.148 368.172 263.386 367.986 262.661 367.815L260.246 351.83L273.586 359.19C279.566 360.915 284.856 361.835 290.376 361.835C301.416 361.835 306.936 357.695 306.936 351.025C306.936 344.355 302.681 341.02 287.961 337.11C268.756 332.05 260.821 325.495 260.821 312.96C260.821 300.425 271.056 291.685 291.181 291.685C300.496 291.685 308.546 292.95 317.631 295.365L319.931 310.66L306.936 303.99C302.106 302.61 297.391 301.92 292.331 301.92C282.556 301.92 276.346 305.715 276.346 311.695C276.346 317.675 279.796 321.24 294.516 325.15C314.296 330.325 322.461 336.995 322.461 349.53ZM388.03 367.01C383.085 369.77 375.265 371.84 368.02 371.84C348.24 371.84 337.89 359.88 337.89 341.48C337.89 323.54 348.93 311.235 368.825 311.235C375.38 311.235 382.74 312.615 387.11 314.455L389.18 327.565L377.335 321.815C374.805 321.125 372.045 320.78 369.515 320.78C359.74 320.78 353.3 328.255 353.3 341.25C353.3 354.59 359.625 361.49 371.125 361.49C377.45 361.49 383.43 359.765 389.755 356.545L388.03 367.01ZM464.371 341.48C464.371 360.57 451.031 371.84 433.206 371.84C415.726 371.84 401.926 360.57 401.926 341.48C401.926 322.39 415.266 311.235 433.206 311.235C451.146 311.235 464.371 322.39 464.371 341.48ZM417.336 341.48C417.336 355.05 423.546 361.49 433.091 361.49C442.636 361.49 448.961 355.05 448.961 341.48C448.961 327.795 442.751 321.47 433.206 321.47C423.661 321.47 417.336 327.795 417.336 341.48ZM496.216 329.06C498.976 318.02 505.531 311.465 516.801 311.465C517.491 311.465 518.411 311.465 519.101 311.58L518.986 326.3L518.671 326.225L518.434 326.168L518.433 326.168C516.299 325.656 514.667 325.265 512.546 325.265C505.531 325.265 497.826 329.635 497.826 343.205V358.96L501.391 370H480.921L483.106 358.96V326.99L480.001 315.95L496.446 310.89L496.216 329.06ZM559.452 311.235C576.242 311.235 587.857 322.39 587.857 339.41C587.857 341.825 587.627 344.01 587.397 345.85H544.617C546.112 356.315 553.357 361.49 564.397 361.49C573.252 361.49 578.427 360.34 585.327 357.81L583.717 367.355C579.807 369.195 572.677 371.84 562.097 371.84C544.732 371.84 529.437 362.755 529.437 341.595C529.437 322.85 542.662 311.235 559.452 311.235ZM573.712 336.42C572.907 326.875 567.617 321.47 559.337 321.47C551.632 321.47 546.112 326.3 544.732 336.42H573.712ZM183 469C183 451.879 196.879 438 214 438H504C521.121 438 535 451.879 535 469C535 486.121 521.121 500 504 500H214C196.879 500 183 486.121 183 469ZM372.416 186.711C379.078 184.547 384.883 180.329 389 174.662L362.167 155.167L389 135.672C384.883 130.005 379.078 125.788 372.416 123.623C365.755 121.459 358.579 121.459 351.918 123.623C345.257 125.788 339.451 130.005 335.334 135.672C331.217 141.339 329 148.163 329 155.167C329 162.171 331.217 168.996 335.334 174.662C339.451 180.329 345.257 184.547 351.918 186.711C358.579 188.875 365.755 188.875 372.416 186.711ZM339.573 175.688C345.016 181.131 352.397 184.188 360.094 184.188V169.263H334.726C336.024 171.599 337.65 173.765 339.573 175.688ZM331.073 155.167C331.073 158.734 331.73 162.234 332.976 165.504L355.853 144.388H333.149C331.79 147.784 331.073 151.438 331.073 155.167ZM360.094 155.167V144.986L337.388 165.946H360.094V155.167ZM334.726 141.071H360.094V126.146C352.397 126.146 345.016 129.203 339.573 134.646C337.65 136.569 336.024 138.735 334.726 141.071Z" fill="white"/>
</g>
<defs>
<filter id="filter0_d_201_80" x="0" y="0" width="718" height="718" filterUnits="userSpaceOnUse" color-interpolation-filters="sRGB">
<feFlood flood-opacity="0" result="BackgroundImageFix"/>
<feColorMatrix in="SourceAlpha" type="matrix" values="0 0 0 0 0 0 0 0 0 0 0 0 0 0 0 0 0 0 127 0" result="hardAlpha"/>
<feOffset dy="4"/>
<feGaussianBlur stdDeviation="2"/>
<feComposite in2="hardAlpha" operator="out"/>
<feColorMatrix type="matrix" values="0 0 0 0 0 0 0 0 0 0 0 0 0 0 0 0 0 0 0.25 0"/>
<feBlend mode="normal" in2="BackgroundImageFix" result="effect1_dropShadow_201_80"/>
<feBlend mode="normal" in="SourceGraphic" in2="effect1_dropShadow_201_80" result="shape"/>
</filter>
</defs>
</svg>
