<svg width="650" height="650" viewBox="0 0 650 650" fill="none" xmlns="http://www.w3.org/2000/svg">
<g filter="url(#filter0_f_258_80)">
<rect width="650" height="650" rx="15" fill="url(#paint0_linear_258_80)"/>
<rect width="650" height="650" rx="15" stroke="url(#paint1_linear_258_80)" stroke-miterlimit="16"/>
</g>
<rect width="650" height="650" rx="15" fill="#0E0C13" stroke="url(#paint2_linear_258_80)" stroke-miterlimit="16"/>
<rect x="75" y="75" width="500" height="500" rx="15" fill="#0E0C13" stroke="url(#paint3_linear_258_80)" stroke-miterlimit="16"/>
<g clip-path="url(#clip0_258_80)">
<circle cx="325" cy="575" r="25" fill="#0E0C13"/>
<path d="M316.042 583.958C316.423 584.34 316.91 584.531 317.5 584.531C318.09 584.531 318.576 584.34 318.958 583.958L325 577.917L331.094 584.01C331.476 584.392 331.953 584.574 332.527 584.556C333.099 584.54 333.576 584.34 333.958 583.958C334.34 583.576 334.531 583.09 334.531 582.5C334.531 581.91 334.34 581.424 333.958 581.042L327.917 575L334.01 568.906C334.392 568.524 334.574 568.046 334.556 567.473C334.539 566.901 334.34 566.424 333.958 566.042C333.576 565.66 333.09 565.469 332.5 565.469C331.91 565.469 331.423 565.66 331.042 566.042L325 572.083L318.906 565.99C318.524 565.608 318.047 565.425 317.475 565.442C316.901 565.46 316.423 565.66 316.042 566.042C315.66 566.424 315.469 566.91 315.469 567.5C315.469 568.09 315.66 568.576 316.042 568.958L322.083 575L315.989 581.094C315.607 581.476 315.426 581.953 315.444 582.525C315.46 583.099 315.66 583.576 316.042 583.958ZM325 595.833C322.118 595.833 319.41 595.286 316.875 594.192C314.34 593.099 312.135 591.615 310.26 589.74C308.385 587.865 306.901 585.66 305.808 583.125C304.714 580.59 304.167 577.882 304.167 575C304.167 572.118 304.714 569.41 305.808 566.875C306.901 564.34 308.385 562.135 310.26 560.26C312.135 558.385 314.34 556.901 316.875 555.806C319.41 554.713 322.118 554.167 325 554.167C327.882 554.167 330.59 554.713 333.125 555.806C335.66 556.901 337.864 558.385 339.739 560.26C341.614 562.135 343.098 564.34 344.192 566.875C345.286 569.41 345.833 572.118 345.833 575C345.833 577.882 345.286 580.59 344.192 583.125C343.098 585.66 341.614 587.865 339.739 589.74C337.864 591.615 335.66 593.099 333.125 594.192C330.59 595.286 327.882 595.833 325 595.833Z" fill="white"/>
</g>
<circle cx="325" cy="325" r="175" stroke="#373146" stroke-width="10"/>
<path d="M325 500C297.383 500 270.158 493.464 245.552 480.926C220.945 468.388 199.655 450.205 183.422 427.862C167.189 405.52 156.475 379.653 152.155 352.376C147.834 325.099 150.031 297.187 158.565 270.922C167.099 244.657 181.728 220.784 201.256 201.256C220.784 181.728 244.657 167.099 270.922 158.565C297.187 150.031 325.099 147.834 352.376 152.155C379.653 156.475 405.52 167.189 427.862 183.422" stroke="url(#paint4_linear_258_80)" stroke-width="10" stroke-linecap="round" stroke-linejoin="round"/>
<g filter="url(#filter1_f_258_80)">
<path d="M325 500C297.383 500 270.158 493.464 245.552 480.926C220.945 468.388 199.655 450.205 183.422 427.862C167.189 405.52 156.475 379.653 152.155 352.376C147.834 325.099 150.031 297.187 158.565 270.922C167.099 244.657 181.728 220.784 201.256 201.256C220.784 181.728 244.657 167.099 270.922 158.565C297.187 150.031 325.099 147.834 352.376 152.155C379.653 156.475 405.52 167.189 427.862 183.422" stroke="url(#paint5_linear_258_80)" stroke-width="10" stroke-linecap="round" stroke-linejoin="round"/>
</g>
<path d="M256.407 338H260.475L265.623 321.296L270.627 338H274.551L282.399 314.096H278.475L278.079 317.444L272.859 334.22L267.927 317.444L267.603 314.096H262.851L263.787 317.516L258.747 334.22L253.527 317.444L253.167 314.096H248.487L256.407 338ZM288.077 338.54C291.497 338.54 293.297 336.524 293.981 334.976L294.305 338H298.373L297.329 334.4V327.164C297.329 322.124 294.521 319.82 289.517 319.82C287.033 319.82 285.017 320.216 283.433 320.72L282.893 324.428L286.313 322.736C287.033 322.556 287.753 322.412 288.833 322.412C292.073 322.412 293.801 324.068 293.801 326.984V328.928C292.757 327.992 290.993 326.84 288.185 326.84C284.225 326.84 281.813 329.432 281.813 332.744C281.813 336.02 284.225 338.54 288.077 338.54ZM289.337 336.056C286.925 336.056 285.449 334.58 285.449 332.6C285.449 330.62 286.853 329.18 289.265 329.18C291.029 329.18 292.541 329.828 293.837 330.944V331.34C293.837 334.292 291.785 336.056 289.337 336.056ZM304.237 317.12L307.333 314.456L304.237 311.756L301.141 314.456L304.237 317.12ZM302.005 338H306.757L306.181 334.652V319.712L301.753 321.044L302.581 324.392V334.652L302.005 338ZM317.167 338.504C318.967 338.504 320.263 338.144 321.487 337.712L321.955 334.904C320.443 335.336 319.291 335.516 318.247 335.516C316.807 335.516 316.015 334.76 316.015 333.32V322.736H321.703V320.36H316.015V316.004H315.727L309.103 322.592V322.736H312.415V333.824C312.415 336.812 314.035 338.504 317.167 338.504ZM326.913 317.12L330.009 314.456L326.913 311.756L323.817 314.456L326.913 317.12ZM324.681 338H329.433L328.857 334.652V319.712L324.429 321.044L325.257 324.392V334.652L324.681 338ZM346.287 338H350.895L350.319 334.652V326.192C350.319 322.448 347.907 319.856 343.911 319.856C340.707 319.856 338.295 321.656 337.395 323.996V319.712L333.183 321.044L333.975 324.392V334.652L333.435 338H338.043L337.575 334.652V327.812C337.575 324.68 339.735 322.628 342.471 322.628C345.171 322.628 346.719 324.248 346.719 326.948V334.652L346.287 338ZM372.991 320.36H366.115C365.071 320 363.847 319.82 362.335 319.82C357.223 319.82 354.163 322.34 354.163 326.048C354.163 328.316 355.387 330.116 357.439 331.16C356.143 332.132 355.315 333.212 355.315 334.436C355.315 335.768 356.035 336.704 357.295 337.244C354.991 337.496 353.443 338.972 353.443 340.988C353.443 343.832 356.539 345.74 362.803 345.74C370.579 345.74 372.271 342.788 372.271 340.124C372.271 337.424 370.183 335.264 365.755 335.228L360.823 335.192C358.591 335.192 358.123 334.4 358.123 333.608C358.123 332.96 358.555 332.312 359.167 331.844C360.103 332.096 361.183 332.24 362.335 332.24C367.159 332.24 370.435 329.792 370.435 326.12C370.435 324.428 369.643 323.132 368.563 322.232L372.559 323.348L372.991 320.36ZM362.299 329.972C359.491 329.972 357.907 328.352 357.907 326.012C357.907 323.708 359.491 322.088 362.299 322.088C365.107 322.088 366.691 323.708 366.691 326.012C366.691 328.352 365.107 329.972 362.299 329.972ZM360.751 338.216L364.927 338.252C367.843 338.288 368.815 339.368 368.815 340.772C368.815 342.284 367.231 343.436 363.595 343.436H362.299C358.375 343.436 356.827 342.356 356.827 340.628C356.827 339.296 357.871 338.18 360.751 338.216ZM378.144 338.792L381.564 335.66L378.144 332.528L374.724 335.66L378.144 338.792ZM387.566 338.792L390.986 335.66L387.566 332.528L384.146 335.66L387.566 338.792ZM396.987 338.792L400.407 335.66L396.987 332.528L393.567 335.66L396.987 338.792Z" fill="white"/>
<defs>
<filter id="filter0_f_258_80" x="-10.5" y="-10.5" width="671" height="671" filterUnits="userSpaceOnUse" color-interpolation-filters="sRGB">
<feFlood flood-opacity="0" result="BackgroundImageFix"/>
<feBlend mode="normal" in="SourceGraphic" in2="BackgroundImageFix" result="shape"/>
<feGaussianBlur stdDeviation="5" result="effect1_foregroundBlur_258_80"/>
</filter>
<filter id="filter1_f_258_80" x="135" y="135" width="307.863" height="380" filterUnits="userSpaceOnUse" color-interpolation-filters="sRGB">
<feFlood flood-opacity="0" result="BackgroundImageFix"/>
<feBlend mode="normal" in="SourceGraphic" in2="BackgroundImageFix" result="shape"/>
<feGaussianBlur stdDeviation="5" result="effect1_foregroundBlur_258_80"/>
</filter>
<linearGradient id="paint0_linear_258_80" x1="325" y1="0" x2="325" y2="650" gradientUnits="userSpaceOnUse">
<stop stop-color="#9118DC"/>
<stop offset="1" stop-color="#FF35E4"/>
</linearGradient>
<linearGradient id="paint1_linear_258_80" x1="325" y1="0" x2="325" y2="650" gradientUnits="userSpaceOnUse">
<stop stop-color="#9118DC"/>
<stop offset="1" stop-color="#FF35E4"/>
</linearGradient>
<linearGradient id="paint2_linear_258_80" x1="325" y1="0" x2="325" y2="650" gradientUnits="userSpaceOnUse">
<stop stop-color="#9118DC"/>
<stop offset="1" stop-color="#FF35E4"/>
</linearGradient>
<linearGradient id="paint3_linear_258_80" x1="325" y1="75" x2="325" y2="575" gradientUnits="userSpaceOnUse">
<stop stop-color="#9118DC"/>
<stop offset="1" stop-color="#FF35E4"/>
</linearGradient>
<linearGradient id="paint4_linear_258_80" x1="325" y1="150" x2="325" y2="500" gradientUnits="userSpaceOnUse">
<stop stop-color="#9118DC"/>
<stop offset="1" stop-color="#FF35E4"/>
</linearGradient>
<linearGradient id="paint5_linear_258_80" x1="325" y1="150" x2="325" y2="500" gradientUnits="userSpaceOnUse">
<stop stop-color="#9118DC"/>
<stop offset="1" stop-color="#FF35E4"/>
</linearGradient>
<clipPath id="clip0_258_80">
<rect width="50" height="50" fill="white" transform="translate(300 550)"/>
</clipPath>
</defs>
</svg>
