<svg width="300" height="70" viewBox="0 0 300 70" fill="none" xmlns="http://www.w3.org/2000/svg">
<rect width="300" height="70" fill="url(#paint0_linear_257_79)"/>
<path d="M121.5 44H124.875L124.475 41.675V29.725L124.875 27.4H121.5L121.9 29.725V41.675L121.5 44ZM132.647 44.4C136.022 44.4 137.822 42.9 137.822 40.75C137.822 38.75 136.572 37.525 133.222 36.7C130.897 36.125 130.147 35.55 130.147 34.575C130.147 33.7 131.122 33.075 132.822 33.075C133.547 33.075 134.272 33.175 135.047 33.375L137.347 34.65L136.947 32C135.922 31.775 134.497 31.375 132.672 31.375C129.322 31.375 127.572 32.775 127.572 34.775C127.572 36.75 128.847 37.925 132.122 38.725C134.447 39.3 135.272 39.95 135.272 40.975C135.272 41.925 134.347 42.675 132.472 42.675C131.597 42.675 130.897 42.6 129.872 42.325L127.522 41.025L127.897 43.7C129.572 44.2 130.772 44.4 132.647 44.4ZM145.147 44.4C148.522 44.4 150.322 42.9 150.322 40.75C150.322 38.75 149.072 37.525 145.722 36.7C143.397 36.125 142.647 35.55 142.647 34.575C142.647 33.7 143.622 33.075 145.322 33.075C146.047 33.075 146.772 33.175 147.547 33.375L149.847 34.65L149.447 32C148.422 31.775 146.997 31.375 145.172 31.375C141.822 31.375 140.072 32.775 140.072 34.775C140.072 36.75 141.347 37.925 144.622 38.725C146.947 39.3 147.772 39.95 147.772 40.975C147.772 41.925 146.847 42.675 144.972 42.675C144.097 42.675 143.397 42.6 142.372 42.325L140.022 41.025L140.397 43.7C142.072 44.2 143.272 44.4 145.147 44.4ZM165.122 44L164.397 41.525V31.3L161.322 32.225L161.897 34.55V39.25C161.897 41.425 160.397 42.7 158.572 42.7C156.772 42.7 155.697 41.575 155.697 39.7V31.3L152.622 32.225L153.197 34.55V39.975C153.197 42.575 154.872 44.375 157.572 44.375C159.897 44.375 161.447 43.225 162.072 41.625L162.297 44H165.122ZM179.591 37.35C179.591 33.75 177.141 31.375 173.641 31.375C170.141 31.375 167.366 33.875 167.366 37.9C167.366 42.35 170.566 44.4 174.166 44.4C176.491 44.4 177.941 43.8 178.791 43.375L179.066 41.675C177.666 42.25 176.516 42.6 174.541 42.6C171.941 42.6 170.166 41.2 169.941 38.525H179.516C179.541 38.2 179.591 37.8 179.591 37.35ZM173.616 33.15C175.641 33.15 177.041 34.5 177.191 36.875H169.966C170.291 34.4 171.716 33.15 173.616 33.15Z" fill="white"/>
<defs>
<linearGradient id="paint0_linear_257_79" x1="150" y1="0" x2="150" y2="70" gradientUnits="userSpaceOnUse">
<stop stop-color="#CB8EFF"/>
<stop offset="1" stop-color="#FF35E4"/>
</linearGradient>
</defs>
</svg>
