<svg width="710" height="710" viewBox="0 0 710 710" fill="none" xmlns="http://www.w3.org/2000/svg">
<path fill-rule="evenodd" clip-rule="evenodd" d="M184 469C184 454.641 195.641 443 210 443H500C514.359 443 526 454.641 526 469C526 483.359 514.359 495 500 495H210C195.641 495 184 483.359 184 469ZM295.59 479H300.69L300.12 476.12V461.96L300.69 459.08H295.59L296.16 461.96V476.12L295.59 479ZM310.091 479.48C314.351 479.48 316.631 477.62 316.631 474.89C316.631 472.4 315.101 470.84 310.991 469.88C308.411 469.28 307.601 468.65 307.601 467.69C307.601 466.85 308.591 466.22 310.391 466.22C311.231 466.22 312.131 466.34 313.061 466.58L316.031 468.2L315.461 464.36C315.303 464.328 315.139 464.295 314.971 464.26C313.697 463.997 312.108 463.67 310.121 463.67C305.801 463.67 303.671 465.5 303.671 467.99C303.671 470.51 305.291 472.01 309.281 472.94C311.861 473.54 312.731 474.23 312.731 475.28C312.731 476.15 311.771 476.9 309.821 476.9C308.831 476.9 307.961 476.81 306.641 476.48L303.581 474.8L304.151 478.7C306.101 479.24 307.691 479.48 310.091 479.48ZM325.53 479.48C329.79 479.48 332.07 477.62 332.07 474.89C332.07 472.4 330.54 470.84 326.43 469.88C323.85 469.28 323.04 468.65 323.04 467.69C323.04 466.85 324.03 466.22 325.83 466.22C326.67 466.22 327.57 466.34 328.5 466.58L331.47 468.2L330.9 464.36C330.742 464.328 330.579 464.295 330.41 464.26C329.136 463.997 327.547 463.67 325.56 463.67C321.24 463.67 319.11 465.5 319.11 467.99C319.11 470.51 320.73 472.01 324.72 472.94C327.3 473.54 328.17 474.23 328.17 475.28C328.17 476.15 327.21 476.9 325.26 476.9C324.27 476.9 323.4 476.81 322.08 476.48L319.02 474.8L319.59 478.7C321.54 479.24 323.13 479.48 325.53 479.48ZM350.27 479L349.34 476V463.58L344.72 464.9L345.5 467.78V473.24C345.5 475.58 343.97 476.93 342.05 476.93C340.16 476.93 339.05 475.76 339.05 473.78V463.58L334.4 464.9L335.21 467.81V474.2C335.21 477.23 337.19 479.45 340.43 479.45C343.22 479.45 345.05 478.07 345.8 476.15L346.1 479H350.27ZM367.893 471.02C367.893 466.58 364.863 463.67 360.483 463.67C356.103 463.67 352.653 466.7 352.653 471.59C352.653 477.11 356.643 479.48 361.173 479.48C363.933 479.48 365.793 478.79 366.813 478.31L367.233 475.82C365.433 476.48 364.083 476.78 361.773 476.78C358.893 476.78 357.003 475.43 356.613 472.7H367.773C367.833 472.22 367.893 471.65 367.893 471.02ZM360.453 466.34C362.613 466.34 363.993 467.75 364.203 470.24H356.643C357.003 467.6 358.443 466.34 360.453 466.34ZM385 481L416 468.501L385 456L391 468.5L385 481Z" fill="white"/>
<path fill-rule="evenodd" clip-rule="evenodd" d="M710 355C710 551.061 551.061 710 355 710C158.939 710 0 551.061 0 355C0 158.939 158.939 0 355 0C551.061 0 710 158.939 710 355ZM63.0443 288H72.3883L80.6442 260.16L88.7083 288H97.6042L111.172 245.504H102.596L102.02 251.648L93.8282 279.552L85.9563 251.648L85.5083 245.504H74.8842L76.4843 251.712L68.4843 279.552L60.2923 251.648L59.7803 245.504H49.3483L63.0443 288ZM141.92 270.976C141.92 261.504 135.456 255.296 126.112 255.296C116.768 255.296 109.408 261.76 109.408 272.192C109.408 283.968 117.92 289.024 127.584 289.024C133.472 289.024 137.44 287.552 139.616 286.528L140.512 281.216C136.672 282.624 133.792 283.264 128.864 283.264C122.72 283.264 118.688 280.384 117.856 274.56H141.664C141.792 273.536 141.92 272.32 141.92 270.976ZM126.048 260.992C130.656 260.992 133.6 264 134.048 269.312H117.92C118.688 263.68 121.76 260.992 126.048 260.992ZM147.792 288H158.352L157.2 281.856V242.624L147.28 245.504L149.008 251.648V281.856L147.792 288ZM180.676 289.024C184.708 289.024 189.06 287.872 191.812 286.336L192.772 280.512C189.252 282.304 185.924 283.264 182.404 283.264C176.004 283.264 172.484 279.424 172.484 272C172.484 264.768 176.068 260.608 181.508 260.608C182.916 260.608 184.452 260.8 185.86 261.184L192.452 264.384L191.3 257.088C188.868 256.064 184.772 255.296 181.124 255.296C170.052 255.296 163.908 262.144 163.908 272.128C163.908 282.368 169.668 289.024 180.676 289.024ZM213.754 289.024C223.674 289.024 231.098 282.752 231.098 272.128C231.098 261.504 223.738 255.296 213.754 255.296C203.77 255.296 196.346 261.504 196.346 272.128C196.346 282.752 204.026 289.024 213.754 289.024ZM213.69 283.264C208.378 283.264 204.922 279.68 204.922 272.128C204.922 264.512 208.442 260.992 213.754 260.992C219.066 260.992 222.522 264.512 222.522 272.128C222.522 279.68 219.002 283.264 213.69 283.264ZM237.108 288H247.284L246.516 281.856V269.888C246.516 264.832 249.588 261.632 253.556 261.632C257.524 261.632 259.764 264.256 259.764 268.096V281.856L258.932 288H268.724L267.956 281.856V268.8C267.956 264.832 271.092 261.632 275.124 261.632C279.156 261.632 281.332 264.128 281.332 268.352V281.856L280.564 288H290.74L289.524 281.856V266.624C289.524 260.096 285.428 255.424 278.516 255.424C272.948 255.424 268.788 258.688 267.316 262.592C265.972 258.368 262.452 255.424 256.948 255.424C251.572 255.424 247.604 258.432 246.068 262.528V255.104L236.596 257.92L238.324 264.064V281.856L237.108 288ZM328.608 270.976C328.608 261.504 322.144 255.296 312.8 255.296C303.456 255.296 296.096 261.76 296.096 272.192C296.096 283.968 304.608 289.024 314.272 289.024C320.16 289.024 324.128 287.552 326.304 286.528L327.2 281.216C323.36 282.624 320.48 283.264 315.552 283.264C309.408 283.264 305.376 280.384 304.544 274.56H328.352C328.48 273.536 328.608 272.32 328.608 270.976ZM312.736 260.992C317.344 260.992 320.288 264 320.736 269.312H304.608C305.376 263.68 308.448 260.992 312.736 260.992ZM359.275 288.896C362.795 288.896 365.291 288.192 367.595 287.424L368.555 281.536C365.867 282.24 363.691 282.624 361.899 282.624C359.467 282.624 358.123 281.28 358.123 278.912V261.504H368.107V256.32H358.123V248.448H356.715L349.675 255.488L344.171 260.928V261.504H349.995V279.744C349.995 285.632 353.195 288.896 359.275 288.896ZM388.566 289.024C398.486 289.024 405.91 282.752 405.91 272.128C405.91 261.504 398.55 255.296 388.566 255.296C378.582 255.296 371.158 261.504 371.158 272.128C371.158 282.752 378.838 289.024 388.566 289.024ZM388.502 283.264C383.19 283.264 379.734 279.68 379.734 272.128C379.734 264.512 383.254 260.992 388.566 260.992C393.878 260.992 397.334 264.512 397.334 272.128C397.334 279.68 393.814 283.264 388.502 283.264ZM422.124 288H449.388L450.668 279.744L443.756 282.368H433.388L450.732 257.6V256.32H423.852L422.636 264.576L429.548 261.952H439.468L422.124 286.72V288ZM455.167 288H465.471L464.575 281.856V242.624L454.655 245.504L456.383 251.648V281.856L455.167 288ZM476.031 288H487.935L474.559 269.632L486.719 256.32H475.391L473.215 261.12L465.791 270.016L474.367 282.56L476.031 288ZM506.801 289.152C518.065 289.152 524.209 284.16 524.209 276.608C524.209 269.632 519.665 265.92 508.657 263.04C500.465 260.864 498.545 258.88 498.545 255.552C498.545 252.224 502.001 250.112 507.441 250.112C510.257 250.112 512.881 250.496 515.569 251.264L522.801 254.976L521.521 246.464C516.465 245.12 511.985 244.416 506.801 244.416C495.601 244.416 489.905 249.28 489.905 256.256C489.905 263.232 494.321 266.88 505.009 269.696C513.201 271.872 515.569 273.728 515.569 277.44C515.569 281.152 512.497 283.456 506.353 283.456C503.281 283.456 500.337 282.944 497.009 281.984L489.585 277.888L490.929 286.784C491.332 286.879 491.756 286.983 492.202 287.092C495.65 287.935 500.397 289.095 506.801 289.152ZM546.364 289.024C550.396 289.024 554.748 287.872 557.5 286.336L558.46 280.512C554.94 282.304 551.612 283.264 548.092 283.264C541.692 283.264 538.172 279.424 538.172 272C538.172 264.768 541.756 260.608 547.196 260.608C548.604 260.608 550.14 260.8 551.548 261.184L558.14 264.384L556.988 257.088C554.556 256.064 550.46 255.296 546.812 255.296C535.74 255.296 529.596 262.144 529.596 272.128C529.596 282.368 535.356 289.024 546.364 289.024ZM579.441 289.024C589.361 289.024 596.785 282.752 596.785 272.128C596.785 261.504 589.425 255.296 579.441 255.296C569.457 255.296 562.033 261.504 562.033 272.128C562.033 282.752 569.713 289.024 579.441 289.024ZM579.377 283.264C574.065 283.264 570.609 279.68 570.609 272.128C570.609 264.512 574.129 260.992 579.441 260.992C584.753 260.992 588.209 264.512 588.209 272.128C588.209 279.68 584.689 283.264 579.377 283.264ZM622.763 255.424C616.491 255.424 612.843 259.072 611.307 265.216L611.435 255.104L602.283 257.92L604.011 264.064V281.856L602.795 288H614.187L612.203 281.856V273.088C612.203 265.536 616.491 263.104 620.395 263.104C621.576 263.104 622.484 263.322 623.673 263.607C623.773 263.631 623.875 263.655 623.979 263.68L624.043 255.488C623.659 255.424 623.147 255.424 622.763 255.424ZM659.108 270.976C659.108 261.504 652.644 255.296 643.3 255.296C633.956 255.296 626.596 261.76 626.596 272.192C626.596 283.968 635.108 289.024 644.772 289.024C650.66 289.024 654.628 287.552 656.804 286.528L657.7 281.216C653.86 282.624 650.98 283.264 646.052 283.264C639.908 283.264 635.876 280.384 635.044 274.56H658.852C658.98 273.536 659.108 272.32 659.108 270.976ZM643.236 260.992C647.844 260.992 650.788 264 651.236 269.312H635.108C635.876 263.68 638.948 260.992 643.236 260.992ZM143.149 326.752L134.477 340.192V344.928L135.085 348H129.677L130.285 344.928V340.16L121.549 326.752H127.629L128.365 329.856L132.749 337.152L137.101 329.856L137.869 326.752H143.149ZM157.924 340.064C157.924 345.376 154.212 348.512 149.252 348.512C144.388 348.512 140.548 345.376 140.548 340.064C140.548 334.752 144.26 331.648 149.252 331.648C154.244 331.648 157.924 334.752 157.924 340.064ZM144.836 340.064C144.836 343.84 146.564 345.632 149.22 345.632C151.876 345.632 153.636 343.84 153.636 340.064C153.636 336.256 151.908 334.496 149.252 334.496C146.596 334.496 144.836 336.256 144.836 340.064ZM176.545 344.8L177.537 348H173.089L172.769 344.96C171.969 347.008 170.017 348.48 167.041 348.48C163.585 348.48 161.473 346.112 161.473 342.88V336.064L160.609 332.96L165.569 331.552V342.432C165.569 344.544 166.753 345.792 168.769 345.792C170.817 345.792 172.449 344.352 172.449 341.856V336.032L171.617 332.96L176.545 331.552V344.8ZM200.125 347.168C198.749 347.936 196.573 348.512 194.557 348.512C189.053 348.512 186.173 345.184 186.173 340.064C186.173 335.072 189.245 331.648 194.781 331.648C196.605 331.648 198.653 332.032 199.869 332.544L200.445 336.192L197.149 334.592C196.445 334.4 195.677 334.304 194.973 334.304C192.253 334.304 190.461 336.384 190.461 340C190.461 343.712 192.221 345.632 195.421 345.632C197.181 345.632 198.845 345.152 200.605 344.256L200.125 347.168ZM213.702 345.44C213.094 346.816 211.462 348.48 208.582 348.48C205.19 348.48 202.982 346.208 202.982 343.264C202.982 340.288 205.158 337.888 208.678 337.888C211.078 337.888 212.614 338.848 213.51 339.648V338.176C213.51 335.936 212.102 334.56 209.35 334.56C208.454 334.56 207.782 334.688 207.27 334.816L203.942 336.352L204.55 332.384C205.83 332.032 207.718 331.648 210.15 331.648C214.918 331.648 217.542 333.696 217.542 338.4V344.768L218.534 348H214.054L213.702 345.44ZM207.11 343.104C207.11 344.64 208.294 345.728 210.086 345.728C211.91 345.728 213.542 344.352 213.542 342.08V341.824C212.518 340.96 211.238 340.48 209.99 340.48C208.198 340.48 207.11 341.568 207.11 343.104ZM237.721 348H232.569L233.017 344.928V338.176C233.017 336.064 231.833 334.816 229.721 334.816C227.609 334.816 225.977 336.416 225.977 338.944V344.928L226.393 348H221.273L221.881 344.928V336.032L221.017 332.96L225.753 331.552V335.296C226.585 333.248 228.665 331.712 231.449 331.712C235.001 331.712 237.113 334.048 237.113 337.312V344.928L237.721 348ZM263.893 340.064C263.893 345.376 260.181 348.512 255.221 348.512C250.357 348.512 246.517 345.376 246.517 340.064C246.517 334.752 250.229 331.648 255.221 331.648C260.213 331.648 263.893 334.752 263.893 340.064ZM250.805 340.064C250.805 343.84 252.533 345.632 255.189 345.632C257.845 345.632 259.605 343.84 259.605 340.064C259.605 336.256 257.877 334.496 255.221 334.496C252.565 334.496 250.805 336.256 250.805 340.064ZM275.653 348H270.885L265.061 332.16H270.149L270.405 334.912L273.477 344.576L277.285 332.16H281.797L285.573 344.544L288.645 334.912L288.901 332.16H293.221L287.653 348H283.109L279.397 335.936L275.653 348ZM311.908 348H306.756L307.204 344.928V338.176C307.204 336.064 306.02 334.816 303.908 334.816C301.796 334.816 300.164 336.416 300.164 338.944V344.928L300.58 348H295.46L296.068 344.928V336.032L295.204 332.96L299.94 331.552V335.296C300.772 333.248 302.852 331.712 305.636 331.712C309.188 331.712 311.3 334.048 311.3 337.312V344.928L311.908 348ZM329.664 350.56C328.448 353.504 326.752 354.848 323.968 354.848C323.008 354.848 322.176 354.752 321.024 354.464V350.944L323.52 352.032C323.648 352.064 323.776 352.064 323.968 352.064C324.832 352.064 325.44 351.52 326.016 350.208L326.816 348.384L319.936 332.16H325.184L325.536 334.912L328.864 343.968L332.352 334.912L332.672 332.16H337.184L329.664 350.56ZM355.736 340.064C355.736 345.376 352.024 348.512 347.064 348.512C342.2 348.512 338.36 345.376 338.36 340.064C338.36 334.752 342.072 331.648 347.064 331.648C352.056 331.648 355.736 334.752 355.736 340.064ZM342.648 340.064C342.648 343.84 344.376 345.632 347.032 345.632C349.688 345.632 351.448 343.84 351.448 340.064C351.448 336.256 349.72 334.496 347.064 334.496C344.408 334.496 342.648 336.256 342.648 340.064ZM374.357 344.8L375.349 348H370.901L370.581 344.96C369.781 347.008 367.829 348.48 364.853 348.48C361.397 348.48 359.285 346.112 359.285 342.88V336.064L358.421 332.96L363.381 331.552V342.432C363.381 344.544 364.565 345.792 366.581 345.792C368.629 345.792 370.261 344.352 370.261 341.856V336.032L369.429 332.96L374.357 331.552V344.8ZM382.404 336.608C383.172 333.536 384.996 331.712 388.132 331.712C388.324 331.712 388.58 331.712 388.772 331.744L388.74 335.84L388.586 335.803C387.992 335.661 387.538 335.552 386.948 335.552C384.996 335.552 382.852 336.768 382.852 340.544V344.928L383.844 348H378.148L378.756 344.928V336.032L377.892 332.96L382.468 331.552L382.404 336.608ZM414.518 340.064C414.518 345.376 410.806 348.512 405.846 348.512C400.982 348.512 397.142 345.376 397.142 340.064C397.142 334.752 400.854 331.648 405.846 331.648C410.838 331.648 414.518 334.752 414.518 340.064ZM401.43 340.064C401.43 343.84 403.158 345.632 405.814 345.632C408.47 345.632 410.23 343.84 410.23 340.064C410.23 336.256 408.502 334.496 405.846 334.496C403.19 334.496 401.43 336.256 401.43 340.064ZM426.278 348H421.51L415.686 332.16H420.774L421.03 334.912L424.102 344.576L427.91 332.16H432.422L436.198 344.544L439.27 334.912L439.526 332.16H443.846L438.278 348H433.734L430.022 335.936L426.278 348ZM462.533 348H457.381L457.829 344.928V338.176C457.829 336.064 456.645 334.816 454.533 334.816C452.421 334.816 450.789 336.416 450.789 338.944V344.928L451.205 348H446.085L446.693 344.928V336.032L445.829 332.96L450.565 331.552V335.296C451.397 333.248 453.477 331.712 456.261 331.712C459.813 331.712 461.925 334.048 461.925 337.312V344.928L462.533 348ZM477.089 348H471.649L472.257 344.928V329.824L471.649 326.752H477.089L476.481 329.824V344.928L477.089 348ZM492.205 344.928C491.213 346.976 489.229 348.48 486.573 348.48C483.373 348.48 480.173 345.856 480.173 340.064C480.173 334.496 483.373 331.712 486.957 331.712C489.453 331.712 490.829 332.928 491.949 334.112V329.824L491.085 326.752L496.013 325.312V344.96L497.005 348H492.557L492.205 344.928ZM484.301 340C484.301 343.744 485.837 345.44 488.077 345.44C490.349 345.44 492.013 343.808 492.013 340.992V336.192C491.021 335.168 489.933 334.496 488.397 334.496C485.997 334.496 484.301 336.288 484.301 340ZM507.962 331.648C512.634 331.648 515.866 334.752 515.866 339.488C515.866 340.16 515.802 340.768 515.738 341.28H503.834C504.25 344.192 506.266 345.632 509.338 345.632C511.802 345.632 513.242 345.312 515.162 344.608L514.714 347.264C513.626 347.776 511.642 348.512 508.698 348.512C503.866 348.512 499.61 345.984 499.61 340.096C499.61 334.88 503.29 331.648 507.962 331.648ZM511.93 338.656C511.706 336 510.234 334.496 507.93 334.496C505.786 334.496 504.25 335.84 503.866 338.656H511.93ZM535.314 348H530.162L530.61 344.928V338.176C530.61 336.064 529.426 334.816 527.314 334.816C525.202 334.816 523.57 336.416 523.57 338.944V344.928L523.986 348H518.866L519.474 344.928V336.032L518.61 332.96L523.346 331.552V335.296C524.178 333.248 526.258 331.712 529.042 331.712C532.594 331.712 534.706 334.048 534.706 337.312V344.928L535.314 348ZM548.673 347.712C547.521 348.096 546.273 348.448 544.513 348.448C541.473 348.448 539.873 346.816 539.873 343.872V334.752H536.961V334.464L539.713 331.744L543.233 328.224H543.937V332.16H548.929V334.752H543.937V343.456C543.937 344.64 544.609 345.312 545.825 345.312C546.721 345.312 547.809 345.12 549.153 344.768L548.673 347.712ZM557.031 326.912L553.831 329.632L550.631 326.912L553.831 324.192L557.031 326.912ZM556.647 348H551.335L551.943 344.928V336.032L551.079 332.96L556.039 331.552V344.928L556.647 348ZM570.048 347.712C568.896 348.096 567.648 348.448 565.888 348.448C562.848 348.448 561.248 346.816 561.248 343.872V334.752H558.336V334.464L561.088 331.744L564.608 328.224H565.312V332.16H570.304V334.752H565.312V343.456C565.312 344.64 565.984 345.312 567.2 345.312C568.096 345.312 569.184 345.12 570.528 344.768L570.048 347.712ZM581.414 350.56C580.198 353.504 578.502 354.848 575.718 354.848C574.758 354.848 573.926 354.752 572.774 354.464V350.944L575.27 352.032C575.398 352.064 575.526 352.064 575.718 352.064C576.582 352.064 577.19 351.52 577.766 350.208L578.566 348.384L571.686 332.16H576.934L577.286 334.912L580.614 343.968L584.102 334.912L584.422 332.16H588.934L581.414 350.56ZM186.857 387.68C186.857 392.832 183.465 396.512 177.993 396.512C175.529 396.512 173.354 395.904 171.113 394.976V377.824L170.249 374.752L175.21 373.312V383.008C176.074 381.312 177.93 379.712 180.65 379.712C183.945 379.712 186.857 382.368 186.857 387.68ZM175.113 393.056C175.882 393.376 176.809 393.664 178.057 393.664C181.066 393.664 182.73 391.584 182.73 387.84C182.73 384.288 181.161 382.72 178.921 382.72C176.682 382.72 175.113 384.416 175.113 387.168V393.056ZM197.742 398.56C196.526 401.504 194.83 402.848 192.046 402.848C191.086 402.848 190.254 402.752 189.102 402.464V398.944L191.598 400.032C191.726 400.064 191.854 400.064 192.046 400.064C192.91 400.064 193.518 399.52 194.094 398.208L194.894 396.384L188.014 380.16H193.262L193.614 382.912L196.942 391.968L200.43 382.912L200.75 380.16H205.262L197.742 398.56ZM219.297 374.912L216.097 377.632L212.897 374.912L216.097 372.192L219.297 374.912ZM218.913 396H213.601L214.209 392.928V384.032L213.345 380.96L218.305 379.552V392.928L218.913 396ZM235.577 391.616C235.577 394.528 233.145 396.512 228.601 396.512C226.041 396.512 224.345 396.256 222.265 395.68L221.657 391.52L224.921 393.312C226.329 393.664 227.257 393.76 228.313 393.76C230.393 393.76 231.417 392.96 231.417 392.032C231.417 390.912 230.489 390.176 227.737 389.536C223.481 388.544 221.753 386.944 221.753 384.256C221.753 381.6 224.025 379.648 228.633 379.648C230.752 379.648 232.447 379.997 233.806 380.277C233.986 380.314 234.161 380.35 234.329 380.384L234.937 384.48L231.769 382.752C230.777 382.496 229.817 382.368 228.921 382.368C227.001 382.368 225.945 383.04 225.945 383.936C225.945 384.96 226.809 385.632 229.561 386.272C233.945 387.296 235.577 388.96 235.577 391.616ZM252.046 391.616C252.046 394.528 249.614 396.512 245.07 396.512C242.51 396.512 240.814 396.256 238.734 395.68L238.126 391.52L241.39 393.312C242.798 393.664 243.726 393.76 244.782 393.76C246.862 393.76 247.886 392.96 247.886 392.032C247.886 390.912 246.958 390.176 244.206 389.536C239.95 388.544 238.222 386.944 238.222 384.256C238.222 381.6 240.494 379.648 245.102 379.648C247.221 379.648 248.916 379.997 250.275 380.277C250.455 380.314 250.629 380.35 250.798 380.384L251.406 384.48L248.238 382.752C247.246 382.496 246.286 382.368 245.39 382.368C243.47 382.368 242.414 383.04 242.414 383.936C242.414 384.96 243.278 385.632 246.03 386.272C250.414 387.296 252.046 388.96 252.046 391.616ZM270.467 392.8L271.459 396H267.011L266.691 392.96C265.891 395.008 263.939 396.48 260.963 396.48C257.507 396.48 255.395 394.112 255.395 390.88V384.064L254.531 380.96L259.491 379.552V390.432C259.491 392.544 260.675 393.792 262.691 393.792C264.739 393.792 266.371 392.352 266.371 389.856V384.032L265.539 380.96L270.467 379.552V392.8ZM279.953 374.912L276.753 377.632L273.553 374.912L276.753 372.192L279.953 374.912ZM279.569 396H274.257L274.865 392.928V384.032L274.001 380.96L278.961 379.552V392.928L279.569 396ZM299.017 396H293.866L294.314 392.928V386.176C294.314 384.064 293.129 382.816 291.017 382.816C288.905 382.816 287.273 384.416 287.273 386.944V392.928L287.69 396H282.569L283.177 392.928V384.032L282.314 380.96L287.049 379.552V383.296C287.882 381.248 289.961 379.712 292.746 379.712C296.297 379.712 298.409 382.048 298.409 385.312V392.928L299.017 396ZM312.856 380.16H319.352L318.872 383.36L315.448 382.272C316.216 383.008 316.792 384 316.792 385.312C316.792 388.608 313.816 390.752 309.24 390.752C308.28 390.752 307.384 390.656 306.552 390.464C306.104 390.848 305.784 391.36 305.784 391.84C305.784 392.416 306.072 393.088 308.12 393.088L312.376 393.12C316.44 393.152 318.456 395.168 318.456 397.696C318.456 400.192 317.144 402.976 309.656 402.976C304.024 402.976 300.984 401.376 300.984 398.784C300.984 397.024 302.296 395.68 304.536 395.456C303.352 394.944 302.68 394.048 302.68 392.864C302.68 391.744 303.416 390.72 304.664 389.824C302.776 388.896 301.624 387.296 301.624 385.248C301.624 381.888 304.408 379.648 309.24 379.648C310.648 379.648 311.864 379.84 312.856 380.16ZM305.88 385.184C305.88 387.008 307 388.224 309.208 388.224C311.416 388.224 312.536 387.008 312.536 385.184C312.536 383.392 311.416 382.176 309.208 382.176C307 382.176 305.88 383.392 305.88 385.184ZM311.352 396.512L308.056 396.48C305.656 396.448 304.824 397.216 304.824 398.368C304.824 399.648 305.976 400.448 309.08 400.448H310.584C313.368 400.448 314.52 399.648 314.52 398.496C314.52 397.344 313.752 396.544 311.352 396.512ZM337.249 393.44C336.641 394.816 335.009 396.48 332.129 396.48C328.737 396.48 326.529 394.208 326.529 391.264C326.529 388.288 328.704 385.888 332.224 385.888C334.625 385.888 336.16 386.848 337.056 387.648V386.176C337.056 383.936 335.648 382.56 332.897 382.56C332 382.56 331.328 382.688 330.816 382.816L327.488 384.352L328.096 380.384C329.376 380.032 331.264 379.648 333.697 379.648C338.465 379.648 341.089 381.696 341.089 386.4V392.768L342.081 396H337.6L337.249 393.44ZM330.656 391.104C330.656 392.64 331.841 393.728 333.633 393.728C335.457 393.728 337.089 392.352 337.089 390.08V389.824C336.065 388.96 334.784 388.48 333.536 388.48C331.745 388.48 330.656 389.568 330.656 391.104ZM366.561 388.768L365.153 385.696H370.177V395.04C367.585 396 365.249 396.544 361.825 396.544C355.009 396.544 350.561 392.512 350.561 385.28C350.561 378.048 355.265 374.176 361.985 374.176C364.865 374.176 366.913 374.56 369.121 375.232L369.761 379.488L366.177 377.632C364.897 377.376 363.617 377.248 362.177 377.248C358.017 377.248 354.881 379.68 354.881 385.248C354.881 390.848 357.665 393.536 362.113 393.536C363.681 393.536 364.961 393.344 366.561 392.896V388.768ZM381.415 379.648C386.087 379.648 389.319 382.752 389.319 387.488C389.319 388.16 389.255 388.768 389.191 389.28H377.288C377.703 392.192 379.72 393.632 382.792 393.632C385.255 393.632 386.695 393.312 388.616 392.608L388.168 395.264C387.079 395.776 385.095 396.512 382.151 396.512C377.319 396.512 373.064 393.984 373.064 388.096C373.064 382.88 376.743 379.648 381.415 379.648ZM385.384 386.656C385.16 384 383.688 382.496 381.384 382.496C379.24 382.496 377.703 383.84 377.319 386.656H385.384ZM408.767 396H403.616L404.064 392.928V386.176C404.064 384.064 402.879 382.816 400.767 382.816C398.655 382.816 397.023 384.416 397.023 386.944V392.928L397.44 396H392.319L392.927 392.928V384.032L392.064 380.96L396.799 379.552V383.296C397.632 381.248 399.711 379.712 402.496 379.712C406.047 379.712 408.159 382.048 408.159 385.312V392.928L408.767 396ZM419.822 379.648C424.494 379.648 427.726 382.752 427.726 387.488C427.726 388.16 427.662 388.768 427.598 389.28H415.694C416.11 392.192 418.126 393.632 421.198 393.632C423.662 393.632 425.102 393.312 427.022 392.608L426.574 395.264C425.486 395.776 423.502 396.512 420.558 396.512C415.726 396.512 411.47 393.984 411.47 388.096C411.47 382.88 415.15 379.648 419.822 379.648ZM423.79 386.656C423.566 384 422.094 382.496 419.79 382.496C417.646 382.496 416.11 383.84 415.726 386.656H423.79ZM444.39 391.616C444.39 394.528 441.958 396.512 437.414 396.512C434.854 396.512 433.158 396.256 431.078 395.68L430.47 391.52L433.734 393.312C435.142 393.664 436.07 393.76 437.126 393.76C439.206 393.76 440.23 392.96 440.23 392.032C440.23 390.912 439.302 390.176 436.55 389.536C432.294 388.544 430.566 386.944 430.566 384.256C430.566 381.6 432.838 379.648 437.446 379.648C439.565 379.648 441.26 379.997 442.618 380.277C442.799 380.314 442.973 380.35 443.142 380.384L443.75 384.48L440.582 382.752C439.59 382.496 438.63 382.368 437.734 382.368C435.814 382.368 434.758 383.04 434.758 383.936C434.758 384.96 435.622 385.632 438.374 386.272C442.758 387.296 444.39 388.96 444.39 391.616ZM452.891 374.912L449.69 377.632L446.491 374.912L449.69 372.192L452.891 374.912ZM452.507 396H447.194L447.802 392.928V384.032L446.939 380.96L451.898 379.552V392.928L452.507 396ZM469.171 391.616C469.171 394.528 466.739 396.512 462.195 396.512C459.635 396.512 457.939 396.256 455.859 395.68L455.251 391.52L458.515 393.312C459.923 393.664 460.851 393.76 461.907 393.76C463.987 393.76 465.011 392.96 465.011 392.032C465.011 390.912 464.083 390.176 461.331 389.536C457.075 388.544 455.347 386.944 455.347 384.256C455.347 381.6 457.619 379.648 462.227 379.648C464.346 379.648 466.041 379.997 467.4 380.277C467.58 380.314 467.754 380.35 467.923 380.384L468.531 384.48L465.363 382.752C464.371 382.496 463.411 382.368 462.515 382.368C460.595 382.368 459.539 383.04 459.539 383.936C459.539 384.96 460.403 385.632 463.155 386.272C467.539 387.296 469.171 388.96 469.171 391.616ZM494.901 390.304C494.901 394.08 491.829 396.576 486.198 396.576C482.996 396.548 480.622 395.967 478.898 395.546C478.675 395.491 478.463 395.44 478.262 395.392L477.59 390.944L481.302 392.992C482.966 393.472 484.438 393.728 485.974 393.728C489.046 393.728 490.582 392.576 490.582 390.72C490.582 388.864 489.397 387.936 485.302 386.848C479.957 385.44 477.75 383.616 477.75 380.128C477.75 376.64 480.598 374.208 486.198 374.208C488.789 374.208 491.03 374.56 493.557 375.232L494.198 379.488L490.582 377.632C489.237 377.248 487.926 377.056 486.517 377.056C483.797 377.056 482.069 378.112 482.069 379.776C482.069 381.44 483.03 382.432 487.125 383.52C492.63 384.96 494.901 386.816 494.901 390.304ZM508.955 396H497.915L498.523 392.928V377.824L497.915 374.752H508.283C513.211 374.752 515.259 377.024 515.259 380.448C515.259 382.784 514.075 384.288 511.515 384.96C514.875 385.6 516.827 387.488 516.827 390.112C516.827 393.728 514.235 396 508.955 396ZM502.683 377.632V383.744H506.747C509.627 383.744 511.131 382.688 511.131 380.768C511.131 378.848 510.011 377.632 507.131 377.632H502.683ZM502.683 386.528V393.12H508.187C511.067 393.12 512.251 391.872 512.251 389.792C512.251 387.712 510.555 386.528 507.739 386.528H502.683ZM535.916 378.56L532.812 377.792H528.78V392.928L529.772 396H523.564L524.556 392.928V377.792H520.524L517.42 378.56L517.996 374.752H535.308L535.916 378.56ZM540.909 393.632L537.453 396.736L533.964 393.632L537.453 390.464L540.909 393.632ZM179 469C179 451.879 192.879 438 210 438H500C517.121 438 531 451.879 531 469C531 486.121 517.121 500 500 500H210C192.879 500 179 486.121 179 469ZM368.416 186.711C375.078 184.547 380.883 180.329 385 174.662L358.167 155.167L385 135.672C380.883 130.005 375.078 125.788 368.416 123.623C361.755 121.459 354.579 121.459 347.918 123.623C341.257 125.788 335.451 130.005 331.334 135.672C327.217 141.339 325 148.163 325 155.167C325 162.171 327.217 168.996 331.334 174.662C335.451 180.329 341.257 184.547 347.918 186.711C354.579 188.875 361.755 188.875 368.416 186.711ZM335.573 175.688C341.016 181.131 348.397 184.188 356.094 184.188V169.263H330.726C332.024 171.599 333.65 173.765 335.573 175.688ZM327.073 155.167C327.073 158.734 327.73 162.234 328.976 165.504L351.853 144.388H329.149C327.79 147.784 327.073 151.438 327.073 155.167ZM356.094 155.167V144.986L333.388 165.946H356.094V155.167ZM330.726 141.071H356.094V126.146C348.397 126.146 341.016 129.203 335.573 134.646C333.65 136.569 332.024 138.735 330.726 141.071Z" fill="white"/>
</svg>
