<svg width="1300" height="1024" viewBox="0 0 1300 1024" fill="none" xmlns="http://www.w3.org/2000/svg">
<path d="M1012.2 185.3L1014.55 185.85L1014.18 183.4H1000.9L1000.53 185.85L1002.9 185.3H1006.25V197.675L1005.6 200H1009.48L1008.83 197.675V185.3H1012.2ZM1019.79 200.4C1023.54 200.4 1026.34 197.95 1026.34 193.85C1026.34 189.775 1023.56 187.35 1019.79 187.35C1016.01 187.35 1013.21 189.775 1013.21 193.85C1013.21 197.95 1016.11 200.4 1019.79 200.4ZM1019.76 198.6C1017.44 198.6 1015.84 197 1015.84 193.85C1015.84 190.725 1017.44 189.125 1019.79 189.125C1022.14 189.125 1023.71 190.725 1023.71 193.85C1023.71 197 1022.11 198.6 1019.76 198.6ZM1033.05 200.35C1034.3 200.35 1035.2 200.1 1036.05 199.8L1036.37 197.85C1035.32 198.15 1034.52 198.275 1033.8 198.275C1032.8 198.275 1032.25 197.75 1032.25 196.75V189.4H1036.2V187.75H1032.25V184.725H1032.05L1027.45 189.3V189.4H1029.75V197.1C1029.75 199.175 1030.87 200.35 1033.05 200.35ZM1042.24 200.375C1044.62 200.375 1045.87 198.975 1046.34 197.9L1046.57 200H1049.39L1048.67 197.5V192.475C1048.67 188.975 1046.72 187.375 1043.24 187.375C1041.52 187.375 1040.12 187.65 1039.02 188L1038.64 190.575L1041.02 189.4C1041.52 189.275 1042.02 189.175 1042.77 189.175C1045.02 189.175 1046.22 190.325 1046.22 192.35V193.7C1045.49 193.05 1044.27 192.25 1042.32 192.25C1039.57 192.25 1037.89 194.05 1037.89 196.35C1037.89 198.625 1039.57 200.375 1042.24 200.375ZM1043.12 198.65C1041.44 198.65 1040.42 197.625 1040.42 196.25C1040.42 194.875 1041.39 193.875 1043.07 193.875C1044.29 193.875 1045.34 194.325 1046.24 195.1V195.375C1046.24 197.425 1044.82 198.65 1043.12 198.65ZM1051.86 200H1055.16L1054.76 197.675V182.475L1051.69 183.4L1052.26 185.725V197.675L1051.86 200ZM1068.73 200.45C1073.01 200.45 1075.36 198.575 1075.36 195.725C1075.36 193.05 1073.58 191.625 1069.31 190.475C1065.86 189.55 1064.98 188.675 1064.98 187.175C1064.98 185.7 1066.51 184.725 1068.91 184.725C1070.03 184.725 1071.08 184.9 1072.18 185.225L1074.81 186.625L1074.38 183.875C1072.36 183.25 1070.66 182.975 1068.71 182.975C1064.58 182.975 1062.36 184.775 1062.36 187.4C1062.36 190 1063.98 191.4 1068.21 192.525C1071.63 193.475 1072.71 194.3 1072.71 195.975C1072.71 197.625 1071.36 198.675 1068.58 198.675C1067.38 198.675 1066.13 198.475 1064.91 198.075L1062.21 196.575L1062.66 199.425C1063.96 199.8 1065.93 200.425 1068.73 200.45ZM1083.91 200.4C1085.49 200.4 1087.14 199.95 1088.24 199.275L1088.54 197.425C1087.19 198.2 1085.81 198.6 1084.44 198.6C1081.79 198.6 1080.29 196.95 1080.29 193.825C1080.29 190.85 1081.81 189.025 1084.14 189.025C1084.76 189.025 1085.39 189.125 1085.99 189.3L1088.39 190.55L1088.01 188.15C1087.01 187.675 1085.44 187.35 1084.04 187.35C1079.99 187.35 1077.66 190.025 1077.66 193.875C1077.66 197.875 1079.86 200.4 1083.91 200.4ZM1096.62 200.4C1100.37 200.4 1103.17 197.95 1103.17 193.85C1103.17 189.775 1100.39 187.35 1096.62 187.35C1092.84 187.35 1090.04 189.775 1090.04 193.85C1090.04 197.95 1092.94 200.4 1096.62 200.4ZM1096.59 198.6C1094.27 198.6 1092.67 197 1092.67 193.85C1092.67 190.725 1094.27 189.125 1096.62 189.125C1098.97 189.125 1100.54 190.725 1100.54 193.85C1100.54 197 1098.94 198.6 1096.59 198.6ZM1112.9 187.4C1110.52 187.4 1109.05 188.775 1108.45 191.075L1108.5 187.3L1105.65 188.225L1106.2 190.55V197.675L1105.82 200H1109.37L1108.7 197.675L1108.72 193.575C1108.9 190.7 1110.65 189.75 1112.2 189.75C1112.65 189.75 1112.95 189.825 1113.4 189.925V187.425C1113.22 187.4 1113.05 187.4 1112.9 187.4ZM1126.63 193.35C1126.63 189.75 1124.18 187.375 1120.68 187.375C1117.18 187.375 1114.41 189.875 1114.41 193.9C1114.41 198.35 1117.61 200.4 1121.21 200.4C1123.53 200.4 1124.98 199.8 1125.83 199.375L1126.11 197.675C1124.71 198.25 1123.56 198.6 1121.58 198.6C1118.98 198.6 1117.21 197.2 1116.98 194.525H1126.56C1126.58 194.2 1126.63 193.8 1126.63 193.35ZM1120.66 189.15C1122.68 189.15 1124.08 190.5 1124.23 192.875H1117.01C1117.33 190.4 1118.76 189.15 1120.66 189.15ZM1135.87 191.55L1138.24 189.4L1135.87 187.2L1133.49 189.4L1135.87 191.55ZM1135.87 200.55L1138.24 198.375L1135.87 196.2L1133.49 198.375L1135.87 200.55Z" fill="white"/>
<path d="M1010.8 366.925C1013.65 366.45 1015.15 364.75 1015.15 362.3C1015.15 359.15 1013.28 357.4 1009.3 357.4H1001.5L1001.9 359.725V371.675L1001.5 374H1004.95L1004.48 371.675V367.325H1008.2L1011.85 372.125L1012.45 374H1016.33L1010.8 366.925ZM1004.43 365.45V359.15H1008.93C1011.43 359.15 1012.6 360.275 1012.6 362.3C1012.6 364.375 1011.08 365.45 1008.58 365.45H1004.43ZM1029.2 367.35C1029.2 363.75 1026.75 361.375 1023.25 361.375C1019.75 361.375 1016.97 363.875 1016.97 367.9C1016.97 372.35 1020.17 374.4 1023.77 374.4C1026.1 374.4 1027.55 373.8 1028.4 373.375L1028.67 371.675C1027.27 372.25 1026.12 372.6 1024.15 372.6C1021.55 372.6 1019.77 371.2 1019.55 368.525H1029.12C1029.15 368.2 1029.2 367.8 1029.2 367.35ZM1023.22 363.15C1025.25 363.15 1026.65 364.5 1026.8 366.875H1019.57C1019.9 364.4 1021.32 363.15 1023.22 363.15ZM1037.82 374.4C1039.4 374.4 1041.05 373.95 1042.15 373.275L1042.45 371.425C1041.1 372.2 1039.72 372.6 1038.35 372.6C1035.7 372.6 1034.2 370.95 1034.2 367.825C1034.2 364.85 1035.72 363.025 1038.05 363.025C1038.67 363.025 1039.3 363.125 1039.9 363.3L1042.3 364.55L1041.92 362.15C1040.92 361.675 1039.35 361.35 1037.95 361.35C1033.9 361.35 1031.57 364.025 1031.57 367.875C1031.57 371.875 1033.77 374.4 1037.82 374.4ZM1056.17 367.35C1056.17 363.75 1053.72 361.375 1050.22 361.375C1046.72 361.375 1043.95 363.875 1043.95 367.9C1043.95 372.35 1047.15 374.4 1050.75 374.4C1053.07 374.4 1054.52 373.8 1055.37 373.375L1055.65 371.675C1054.25 372.25 1053.1 372.6 1051.12 372.6C1048.52 372.6 1046.75 371.2 1046.52 368.525H1056.1C1056.12 368.2 1056.17 367.8 1056.17 367.35ZM1050.2 363.15C1052.22 363.15 1053.62 364.5 1053.77 366.875H1046.55C1046.87 364.4 1048.3 363.15 1050.2 363.15ZM1060.4 359.5L1062.55 357.65L1060.4 355.775L1058.25 357.65L1060.4 359.5ZM1058.85 374H1062.15L1061.75 371.675V361.3L1058.67 362.225L1059.25 364.55V371.675L1058.85 374ZM1073.75 361.75L1073.4 363.925L1070.45 371.65L1067.55 363.925L1067.2 361.75H1064.03L1068.9 374H1071.6L1076.53 361.75H1073.75ZM1089.89 367.35C1089.89 363.75 1087.44 361.375 1083.94 361.375C1080.44 361.375 1077.66 363.875 1077.66 367.9C1077.66 372.35 1080.86 374.4 1084.46 374.4C1086.79 374.4 1088.24 373.8 1089.09 373.375L1089.36 371.675C1087.96 372.25 1086.81 372.6 1084.84 372.6C1082.24 372.6 1080.46 371.2 1080.24 368.525H1089.81C1089.84 368.2 1089.89 367.8 1089.89 367.35ZM1083.91 363.15C1085.94 363.15 1087.34 364.5 1087.49 366.875H1080.26C1080.59 364.4 1082.01 363.15 1083.91 363.15ZM1097.29 374.375C1099.39 374.375 1101.01 373.2 1101.79 371.55L1102.04 374H1104.84L1104.11 371.675V356.475L1101.04 357.4L1101.61 359.725V363.325C1100.74 362.4 1099.66 361.4 1097.61 361.4C1094.69 361.4 1092.26 363.65 1092.26 367.875C1092.26 372.225 1094.66 374.375 1097.29 374.375ZM1098.16 372.5C1096.16 372.5 1094.79 370.925 1094.79 367.825C1094.79 364.775 1096.29 363.15 1098.46 363.15C1099.81 363.15 1100.76 363.75 1101.66 364.7V368.7C1101.66 371.025 1100.16 372.5 1098.16 372.5ZM1118.22 374.45C1122.49 374.45 1124.84 372.575 1124.84 369.725C1124.84 367.05 1123.07 365.625 1118.79 364.475C1115.34 363.55 1114.47 362.675 1114.47 361.175C1114.47 359.7 1115.99 358.725 1118.39 358.725C1119.52 358.725 1120.57 358.9 1121.67 359.225L1124.29 360.625L1123.87 357.875C1121.84 357.25 1120.14 356.975 1118.19 356.975C1114.07 356.975 1111.84 358.775 1111.84 361.4C1111.84 364 1113.47 365.4 1117.69 366.525C1121.12 367.475 1122.19 368.3 1122.19 369.975C1122.19 371.625 1120.84 372.675 1118.07 372.675C1116.87 372.675 1115.62 372.475 1114.39 372.075L1111.69 370.575L1112.14 373.425C1113.44 373.8 1115.42 374.425 1118.22 374.45ZM1133.4 374.4C1134.98 374.4 1136.63 373.95 1137.73 373.275L1138.03 371.425C1136.68 372.2 1135.3 372.6 1133.93 372.6C1131.28 372.6 1129.78 370.95 1129.78 367.825C1129.78 364.85 1131.3 363.025 1133.63 363.025C1134.25 363.025 1134.88 363.125 1135.48 363.3L1137.88 364.55L1137.5 362.15C1136.5 361.675 1134.93 361.35 1133.53 361.35C1129.48 361.35 1127.15 364.025 1127.15 367.875C1127.15 371.875 1129.35 374.4 1133.4 374.4ZM1146.1 374.4C1149.85 374.4 1152.65 371.95 1152.65 367.85C1152.65 363.775 1149.88 361.35 1146.1 361.35C1142.33 361.35 1139.53 363.775 1139.53 367.85C1139.53 371.95 1142.43 374.4 1146.1 374.4ZM1146.08 372.6C1143.75 372.6 1142.15 371 1142.15 367.85C1142.15 364.725 1143.75 363.125 1146.1 363.125C1148.45 363.125 1150.03 364.725 1150.03 367.85C1150.03 371 1148.43 372.6 1146.08 372.6ZM1162.38 361.4C1160.01 361.4 1158.53 362.775 1157.93 365.075L1157.98 361.3L1155.13 362.225L1155.68 364.55V371.675L1155.31 374H1158.86L1158.18 371.675L1158.21 367.575C1158.38 364.7 1160.13 363.75 1161.68 363.75C1162.13 363.75 1162.43 363.825 1162.88 363.925V361.425C1162.71 361.4 1162.53 361.4 1162.38 361.4ZM1176.12 367.35C1176.12 363.75 1173.67 361.375 1170.17 361.375C1166.67 361.375 1163.89 363.875 1163.89 367.9C1163.89 372.35 1167.09 374.4 1170.69 374.4C1173.02 374.4 1174.47 373.8 1175.32 373.375L1175.59 371.675C1174.19 372.25 1173.04 372.6 1171.07 372.6C1168.47 372.6 1166.69 371.2 1166.47 368.525H1176.04C1176.07 368.2 1176.12 367.8 1176.12 367.35ZM1170.14 363.15C1172.17 363.15 1173.57 364.5 1173.72 366.875H1166.49C1166.82 364.4 1168.24 363.15 1170.14 363.15ZM1185.36 365.55L1187.73 363.4L1185.36 361.2L1182.98 363.4L1185.36 365.55ZM1185.36 374.55L1187.73 372.375L1185.36 370.2L1182.98 372.375L1185.36 374.55Z" fill="white"/>
<g clip-path="url(#clip0_265_382)">
<path d="M1075 811H675V813H1075V811Z" fill="white" mask="url(#path-4-inside-1_265_382)"/>
<path d="M1075 907H675V909H1075V907Z" fill="white" mask="url(#path-6-inside-2_265_382)"/>
<path d="M1075 1003H675V1005H1075V1003Z" fill="white" mask="url(#path-8-inside-3_265_382)"/>
</g>
<path fill-rule="evenodd" clip-rule="evenodd" d="M700 653H604C595.716 653 589 659.716 589 668V1024H590V668C590 660.268 596.268 654 604 654H700.014C700.005 653.668 700 653.334 700 653ZM1049.99 654H1146C1153.73 654 1160 660.268 1160 668V1024H1161V668C1161 659.716 1154.28 653 1146 653H1050C1050 653.334 1050 653.668 1049.99 654Z" fill="white"/>
<rect x="700.5" y="618.5" width="349" height="69" rx="34.5" stroke="white"/>
<path d="M797.5 662H800.875L800.475 659.675V647.725L800.875 645.4H797.5L797.9 647.725V659.675L797.5 662ZM808.572 662.375C810.672 662.375 812.297 661.2 813.072 659.55L813.322 662H816.122L815.397 659.675V644.475L812.322 645.4L812.897 647.725V651.325C812.022 650.4 810.947 649.4 808.897 649.4C805.972 649.4 803.547 651.65 803.547 655.875C803.547 660.225 805.947 662.375 808.572 662.375ZM809.447 660.5C807.447 660.5 806.072 658.925 806.072 655.825C806.072 652.775 807.572 651.15 809.747 651.15C811.097 651.15 812.047 651.75 812.947 652.7V656.7C812.947 659.025 811.447 660.5 809.447 660.5ZM830.64 655.35C830.64 651.75 828.19 649.375 824.69 649.375C821.19 649.375 818.415 651.875 818.415 655.9C818.415 660.35 821.615 662.4 825.215 662.4C827.54 662.4 828.99 661.8 829.84 661.375L830.115 659.675C828.715 660.25 827.565 660.6 825.59 660.6C822.99 660.6 821.215 659.2 820.99 656.525H830.565C830.59 656.2 830.64 655.8 830.64 655.35ZM824.665 651.15C826.69 651.15 828.09 652.5 828.24 654.875H821.015C821.34 652.4 822.765 651.15 824.665 651.15ZM842.24 662H845.44L845.04 659.675V653.8C845.04 651.2 843.365 649.4 840.59 649.4C838.365 649.4 836.69 650.65 836.065 652.275V649.3L833.14 650.225L833.69 652.55V659.675L833.315 662H836.515L836.19 659.675V654.925C836.19 652.75 837.69 651.325 839.59 651.325C841.465 651.325 842.54 652.45 842.54 654.325V659.675L842.24 662ZM852.56 662.35C853.81 662.35 854.71 662.1 855.56 661.8L855.885 659.85C854.835 660.15 854.035 660.275 853.31 660.275C852.31 660.275 851.76 659.75 851.76 658.75V651.4H855.71V649.75H851.76V646.725H851.56L846.96 651.3V651.4H849.26V659.1C849.26 661.175 850.385 662.35 852.56 662.35ZM859.328 647.5L861.478 645.65L859.328 643.775L857.178 645.65L859.328 647.5ZM857.778 662H861.078L860.678 659.675V649.3L857.603 650.225L858.178 652.55V659.675L857.778 662ZM868.307 662.35C869.557 662.35 870.457 662.1 871.307 661.8L871.632 659.85C870.582 660.15 869.782 660.275 869.057 660.275C868.057 660.275 867.507 659.75 867.507 658.75V651.4H871.457V649.75H867.507V646.725H867.307L862.707 651.3V651.4H865.007V659.1C865.007 661.175 866.132 662.35 868.307 662.35ZM875.425 667.25C877.425 667.25 878.625 666.3 879.5 664.15L885.45 649.75H882.575L882.275 651.925L879.2 659.625L876.25 651.925L875.9 649.75H872.625L877.95 662.35L877.3 663.9C876.8 665.025 876.275 665.5 875.475 665.5C875.325 665.5 875.225 665.5 875.1 665.475L873.25 664.675V666.95C874.175 667.175 874.75 667.25 875.425 667.25ZM898.275 662.45C902.55 662.45 904.9 660.575 904.9 657.725C904.9 655.05 903.125 653.625 898.85 652.475C895.4 651.55 894.525 650.675 894.525 649.175C894.525 647.7 896.05 646.725 898.45 646.725C899.575 646.725 900.625 646.9 901.725 647.225L904.35 648.625L903.925 645.875C901.9 645.25 900.2 644.975 898.25 644.975C894.125 644.975 891.9 646.775 891.9 649.4C891.9 652 893.525 653.4 897.75 654.525C901.175 655.475 902.25 656.3 902.25 657.975C902.25 659.625 900.9 660.675 898.125 660.675C896.925 660.675 895.675 660.475 894.45 660.075L891.75 658.575L892.2 661.425C893.5 661.8 895.475 662.425 898.275 662.45ZM911.471 662.35C912.721 662.35 913.621 662.1 914.471 661.8L914.796 659.85C913.746 660.15 912.946 660.275 912.221 660.275C911.221 660.275 910.671 659.75 910.671 658.75V651.4H914.621V649.75H910.671V646.725H910.471L905.871 651.3V651.4H908.171V659.1C908.171 661.175 909.296 662.35 911.471 662.35ZM920.664 662.375C923.039 662.375 924.289 660.975 924.764 659.9L924.989 662H927.814L927.089 659.5V654.475C927.089 650.975 925.139 649.375 921.664 649.375C919.939 649.375 918.539 649.65 917.439 650L917.064 652.575L919.439 651.4C919.939 651.275 920.439 651.175 921.189 651.175C923.439 651.175 924.639 652.325 924.639 654.35V655.7C923.914 655.05 922.689 654.25 920.739 654.25C917.989 654.25 916.314 656.05 916.314 658.35C916.314 660.625 917.989 662.375 920.664 662.375ZM921.539 660.65C919.864 660.65 918.839 659.625 918.839 658.25C918.839 656.875 919.814 655.875 921.489 655.875C922.714 655.875 923.764 656.325 924.664 657.1V657.375C924.664 659.425 923.239 660.65 921.539 660.65ZM934.249 662.35C935.499 662.35 936.399 662.1 937.249 661.8L937.574 659.85C936.524 660.15 935.724 660.275 934.999 660.275C933.999 660.275 933.449 659.75 933.449 658.75V651.4H937.399V649.75H933.449V646.725H933.249L928.649 651.3V651.4H930.949V659.1C930.949 661.175 932.074 662.35 934.249 662.35ZM950.904 655.35C950.904 651.75 948.454 649.375 944.954 649.375C941.454 649.375 938.679 651.875 938.679 655.9C938.679 660.35 941.879 662.4 945.479 662.4C947.804 662.4 949.254 661.8 950.104 661.375L950.379 659.675C948.979 660.25 947.829 660.6 945.854 660.6C943.254 660.6 941.479 659.2 941.254 656.525H950.829C950.854 656.2 950.904 655.8 950.904 655.35ZM944.929 651.15C946.954 651.15 948.354 652.5 948.504 654.875H941.279C941.604 652.4 943.029 651.15 944.929 651.15Z" fill="white"/>
<path d="M0 0H291V1024H0V0Z" fill="#0E0C13"/>
<path d="M288.5 0V1024H293.5V0H288.5Z" fill="#2C2F35"/>
<defs>
<clipPath id="clip0_265_382">
<rect x="655" y="732" width="440" height="292" rx="5" fill="white"/>
</clipPath>
</defs>
</svg>
