<svg width="350" height="70" viewBox="0 0 350 70" fill="none" xmlns="http://www.w3.org/2000/svg">
<rect x="0.25" y="0.25" width="349.5" height="69.5" rx="34.75" fill="url(#paint0_linear_261_84)" stroke="#2C2F35" stroke-width="0.5"/>
<path d="M122.816 27.4L122.441 29.725L117.941 41.65L113.541 29.725L113.166 27.4H109.891L116.341 44H119.066L125.691 27.4H122.816ZM137.35 37.35C137.35 33.75 134.9 31.375 131.4 31.375C127.9 31.375 125.125 33.875 125.125 37.9C125.125 42.35 128.325 44.4 131.925 44.4C134.25 44.4 135.7 43.8 136.55 43.375L136.825 41.675C135.425 42.25 134.275 42.6 132.3 42.6C129.7 42.6 127.925 41.2 127.7 38.525H137.275C137.3 38.2 137.35 37.8 137.35 37.35ZM131.375 33.15C133.4 33.15 134.8 34.5 134.95 36.875H127.725C128.05 34.4 129.475 33.15 131.375 33.15ZM147.1 31.4C144.725 31.4 143.25 32.775 142.65 35.075L142.7 31.3L139.85 32.225L140.4 34.55V41.675L140.025 44H143.575L142.9 41.675L142.925 37.575C143.1 34.7 144.85 33.75 146.4 33.75C146.85 33.75 147.15 33.825 147.6 33.925V31.425C147.425 31.4 147.25 31.4 147.1 31.4ZM151.365 29.5L153.515 27.65L151.365 25.775L149.215 27.65L151.365 29.5ZM149.815 44H153.115L152.715 41.675V31.3L149.64 32.225L150.215 34.55V41.675L149.815 44ZM166.569 31.3L164.244 32H159.469V30.45C159.469 29 160.269 27.7 162.244 27.7C162.394 27.7 162.544 27.7 162.694 27.725L165.219 29.075L167.219 27.275C166.169 26.875 164.244 26.275 162.144 26.275C158.469 26.275 156.994 28.4 156.994 30.575V32H154.744V33.6H156.994V41.675L156.594 44H159.919L159.494 41.675V33.6H163.844L164.069 34.55V41.675L163.669 44H166.969L166.569 41.675V31.3ZM175.491 44.4C177.066 44.4 178.716 43.95 179.816 43.275L180.116 41.425C178.766 42.2 177.391 42.6 176.016 42.6C173.366 42.6 171.866 40.95 171.866 37.825C171.866 34.85 173.391 33.025 175.716 33.025C176.341 33.025 176.966 33.125 177.566 33.3L179.966 34.55L179.591 32.15C178.591 31.675 177.016 31.35 175.616 31.35C171.566 31.35 169.241 34.025 169.241 37.875C169.241 41.875 171.441 44.4 175.491 44.4ZM186.554 44.375C188.929 44.375 190.179 42.975 190.654 41.9L190.879 44H193.704L192.979 41.5V36.475C192.979 32.975 191.029 31.375 187.554 31.375C185.829 31.375 184.429 31.65 183.329 32L182.954 34.575L185.329 33.4C185.829 33.275 186.329 33.175 187.079 33.175C189.329 33.175 190.529 34.325 190.529 36.35V37.7C189.804 37.05 188.579 36.25 186.629 36.25C183.879 36.25 182.204 38.05 182.204 40.35C182.204 42.625 183.879 44.375 186.554 44.375ZM187.429 42.65C185.754 42.65 184.729 41.625 184.729 40.25C184.729 38.875 185.704 37.875 187.379 37.875C188.604 37.875 189.654 38.325 190.554 39.1V39.375C190.554 41.425 189.129 42.65 187.429 42.65ZM200.139 44.35C201.389 44.35 202.289 44.1 203.139 43.8L203.464 41.85C202.414 42.15 201.614 42.275 200.889 42.275C199.889 42.275 199.339 41.75 199.339 40.75V33.4H203.289V31.75H199.339V28.725H199.139L194.539 33.3V33.4H196.839V41.1C196.839 43.175 197.964 44.35 200.139 44.35ZM206.907 29.5L209.057 27.65L206.907 25.775L204.757 27.65L206.907 29.5ZM205.357 44H208.657L208.257 41.675V31.3L205.182 32.225L205.757 34.55V41.675L205.357 44ZM217.711 44.4C221.461 44.4 224.261 41.95 224.261 37.85C224.261 33.775 221.486 31.35 217.711 31.35C213.936 31.35 211.136 33.775 211.136 37.85C211.136 41.95 214.036 44.4 217.711 44.4ZM217.686 42.6C215.361 42.6 213.761 41 213.761 37.85C213.761 34.725 215.361 33.125 217.711 33.125C220.061 33.125 221.636 34.725 221.636 37.85C221.636 41 220.036 42.6 217.686 42.6ZM235.839 44H239.039L238.639 41.675V35.8C238.639 33.2 236.964 31.4 234.189 31.4C231.964 31.4 230.289 32.65 229.664 34.275V31.3L226.739 32.225L227.289 34.55V41.675L226.914 44H230.114L229.789 41.675V36.925C229.789 34.75 231.289 33.325 233.189 33.325C235.064 33.325 236.139 34.45 236.139 36.325V41.675L235.839 44Z" fill="white"/>
<defs>
<linearGradient id="paint0_linear_261_84" x1="175" y1="0" x2="175" y2="70" gradientUnits="userSpaceOnUse">
<stop stop-color="#AC8EFF"/>
<stop offset="1" stop-color="#FF35E4"/>
</linearGradient>
</defs>
</svg>
