<svg width="93" height="31" viewBox="0 0 93 31" fill="none" xmlns="http://www.w3.org/2000/svg">
<path d="M1.75762 16.1503H2.75764V23.1505C2.75764 24.2535 3.65466 25.1505 4.75768 25.1505H16.7579C17.861 25.1505 18.758 24.2535 18.758 23.1505V16.1503H19.758C19.9558 16.1503 20.1491 16.0916 20.3135 15.9817C20.4779 15.8718 20.606 15.7157 20.6817 15.533C20.7574 15.3503 20.7772 15.1492 20.7386 14.9553C20.7 14.7613 20.6048 14.5832 20.465 14.4433L11.4648 5.44311C11.372 5.35016 11.2618 5.27642 11.1405 5.22611C11.0192 5.1758 10.8891 5.1499 10.7578 5.1499C10.6265 5.1499 10.4964 5.1758 10.3751 5.22611C10.2538 5.27642 10.1436 5.35016 10.0508 5.44311L1.05061 14.4433C0.910793 14.5832 0.815585 14.7613 0.777016 14.9553C0.738448 15.1492 0.758251 15.3503 0.833923 15.533C0.909595 15.7157 1.03774 15.8718 1.20215 15.9817C1.36656 16.0916 1.55987 16.1503 1.75762 16.1503ZM8.75777 23.1505V18.1504H12.7579V23.1505H8.75777ZM10.7578 7.56415L16.7579 13.5643V18.1504L16.7589 23.1505H14.7579V18.1504C14.7579 17.0474 13.8609 16.1503 12.7579 16.1503H8.75777C7.65475 16.1503 6.75773 17.0474 6.75773 18.1504V23.1505H4.75768V13.5643L10.7578 7.56415Z" fill="url(#paint0_linear_264_168)"/>
<path d="M36.9578 22.1501H39.6578L39.3378 20.2901V16.1301H46.5178V20.2901L46.1978 22.1501H48.8978L48.5778 20.2901V10.7301L48.8978 8.87015H46.1978L46.5178 10.7301V14.6101H39.3378V10.7301L39.6578 8.87015H36.9578L37.2778 10.7301V20.2901L36.9578 22.1501ZM56.2938 22.4701C59.2938 22.4701 61.5338 20.5101 61.5338 17.2301C61.5338 13.9701 59.3138 12.0301 56.2938 12.0301C53.2738 12.0301 51.0338 13.9701 51.0338 17.2301C51.0338 20.5101 53.3538 22.4701 56.2938 22.4701ZM56.2738 21.0301C54.4138 21.0301 53.1338 19.7501 53.1338 17.2301C53.1338 14.7301 54.4138 13.4501 56.2938 13.4501C58.1738 13.4501 59.4338 14.7301 59.4338 17.2301C59.4338 19.7501 58.1538 21.0301 56.2738 21.0301ZM63.6566 22.1501H66.1966L65.9566 20.2901V16.4901C65.9566 14.7501 67.0966 13.6101 68.5166 13.6101C69.9566 13.6101 70.7366 14.5301 70.7366 15.8901V20.2901L70.5166 22.1501H72.9566L72.7366 20.2901V16.0901C72.7366 14.7501 73.8766 13.6101 75.3166 13.6101C76.7766 13.6101 77.5566 14.5101 77.5566 16.0101V20.2901L77.3366 22.1501H79.8766L79.5566 20.2901V15.5901C79.5566 13.5101 78.2766 12.0701 76.0966 12.0701C74.3366 12.0701 72.9966 13.1301 72.5566 14.3501C72.1366 12.9901 71.0566 12.0701 69.2966 12.0701C67.6166 12.0701 66.3366 13.0301 65.8566 14.3301V11.9901L63.5166 12.7301L63.9566 14.5901V20.2901L63.6566 22.1501ZM91.5559 16.8301C91.5559 13.9501 89.5959 12.0501 86.7959 12.0501C83.9959 12.0501 81.7759 14.0501 81.7759 17.2701C81.7759 20.8301 84.3359 22.4701 87.2159 22.4701C89.0759 22.4701 90.2359 21.9901 90.9159 21.6501L91.1359 20.2901C90.0159 20.7501 89.0959 21.0301 87.5159 21.0301C85.4359 21.0301 84.0159 19.9101 83.8359 17.7701H91.4959C91.5159 17.5101 91.5559 17.1901 91.5559 16.8301ZM86.7759 13.4701C88.3959 13.4701 89.5159 14.5501 89.6359 16.4501H83.8559C84.1159 14.4701 85.2559 13.4701 86.7759 13.4701Z" fill="url(#paint1_linear_264_168)"/>
<defs>
<linearGradient id="paint0_linear_264_168" x1="10.7578" y1="5.1499" x2="10.7578" y2="25.1505" gradientUnits="userSpaceOnUse">
<stop stop-color="#AC8EFF"/>
<stop offset="1" stop-color="#FF35E4"/>
</linearGradient>
<linearGradient id="paint1_linear_264_168" x1="64.2578" y1="0.150146" x2="64.2578" y2="30.1501" gradientUnits="userSpaceOnUse">
<stop stop-color="#AC8EFF"/>
<stop offset="1" stop-color="#FF35E4"/>
</linearGradient>
</defs>
</svg>
