<svg width="85" height="31" viewBox="0 0 85 31" fill="none" xmlns="http://www.w3.org/2000/svg">
<path fill-rule="evenodd" clip-rule="evenodd" d="M3.10416 5.84717C2.33683 5.84717 1.60093 6.15199 1.05834 6.69457C0.515758 7.23716 0.210938 7.97306 0.210938 8.74039V23.2065C0.210938 23.9738 0.515758 24.7097 1.05834 25.2523C1.60093 25.7949 2.33683 26.0997 3.10416 26.0997H7.80564C8.09339 26.0997 8.36935 25.9854 8.57282 25.7819C8.77629 25.5785 8.8906 25.3025 8.8906 25.0147C8.8906 24.727 8.77629 24.451 8.57282 24.2476C8.36935 24.0441 8.09339 23.9298 7.80564 23.9298H3.10416C2.91232 23.9298 2.72835 23.8536 2.5927 23.7179C2.45706 23.5823 2.38085 23.3983 2.38085 23.2065V8.74039C2.38085 8.54855 2.45706 8.36458 2.5927 8.22893C2.72835 8.09329 2.91232 8.01708 3.10416 8.01708H11.7838C11.9756 8.01708 12.1596 8.09329 12.2953 8.22893C12.4309 8.36458 12.5071 8.54855 12.5071 8.74039V16.3351C12.5071 16.6228 12.6214 16.8988 12.8249 17.1023C13.0284 17.3057 13.3043 17.42 13.5921 17.42C13.8798 17.42 14.1558 17.3057 14.3593 17.1023C14.5627 16.8988 14.677 16.6228 14.677 16.3351V10.7136L17.8451 12.3627C17.8875 12.3845 17.9251 12.4145 17.9558 12.451C17.9866 12.4874 18.0098 12.5296 18.0242 12.575C18.0385 12.6204 18.0438 12.6683 18.0396 12.7157C18.0355 12.7632 18.022 12.8094 17.9999 12.8517L16.4491 15.8346C16.327 16.0885 16.3085 16.3801 16.3975 16.6475C16.4865 16.9149 16.6761 17.1371 16.9261 17.2672C17.1761 17.3973 17.467 17.425 17.737 17.3444C18.0071 17.2639 18.2352 17.0814 18.3731 16.8356L19.9253 13.8527C20.2351 13.2571 20.2956 12.5628 20.0935 11.9225C19.8914 11.2823 19.4432 10.7485 18.8476 10.4387L14.6351 8.24565C14.5185 7.57403 14.1686 6.96514 13.6469 6.52634C13.1253 6.08754 12.4655 5.84701 11.7838 5.84717H3.10416ZM17.5703 23.2065C17.5703 23.9738 17.2654 24.7097 16.7228 25.2523C16.1803 25.7949 15.4444 26.0997 14.677 26.0997C13.9097 26.0997 13.1738 25.7949 12.6312 25.2523C12.0886 24.7097 11.7838 23.9738 11.7838 23.2065C11.7838 22.4392 12.0886 21.7033 12.6312 21.1607C13.1738 20.6181 13.9097 20.3133 14.677 20.3133C15.4444 20.3133 16.1803 20.6181 16.7228 21.1607C17.2654 21.7033 17.5703 22.4392 17.5703 23.2065Z" fill="#2C2F35"/>
<path d="M36.4109 22.9734H39.1109L38.7909 21.1134V11.5534L39.1109 9.69339H36.4109L36.7309 11.5534V21.1134L36.4109 22.9734ZM45.3286 23.2934C48.0286 23.2934 49.4686 22.0934 49.4686 20.3734C49.4686 18.7734 48.4686 17.7934 45.7886 17.1334C43.9286 16.6734 43.3286 16.2134 43.3286 15.4334C43.3286 14.7334 44.1086 14.2334 45.4686 14.2334C46.0486 14.2334 46.6286 14.3134 47.2486 14.4734L49.0886 15.4934L48.7686 13.3734C47.9486 13.1934 46.8086 12.8734 45.3486 12.8734C42.6686 12.8734 41.2686 13.9934 41.2686 15.5934C41.2686 17.1734 42.2886 18.1134 44.9086 18.7534C46.7686 19.2134 47.4286 19.7334 47.4286 20.5534C47.4286 21.3134 46.6886 21.9134 45.1886 21.9134C44.4886 21.9134 43.9286 21.8534 43.1086 21.6334L41.2286 20.5934L41.5286 22.7334C42.8686 23.1334 43.8286 23.2934 45.3286 23.2934ZM55.3286 23.2934C58.0286 23.2934 59.4686 22.0934 59.4686 20.3734C59.4686 18.7734 58.4686 17.7934 55.7886 17.1334C53.9286 16.6734 53.3286 16.2134 53.3286 15.4334C53.3286 14.7334 54.1086 14.2334 55.4686 14.2334C56.0486 14.2334 56.6286 14.3134 57.2486 14.4734L59.0886 15.4934L58.7686 13.3734C57.9486 13.1934 56.8086 12.8734 55.3486 12.8734C52.6686 12.8734 51.2686 13.9934 51.2686 15.5934C51.2686 17.1734 52.2886 18.1134 54.9086 18.7534C56.7686 19.2134 57.4286 19.7334 57.4286 20.5534C57.4286 21.3134 56.6886 21.9134 55.1886 21.9134C54.4886 21.9134 53.9286 21.8534 53.1086 21.6334L51.2286 20.5934L51.5286 22.7334C52.8686 23.1334 53.8286 23.2934 55.3286 23.2934ZM71.3086 22.9734L70.7286 20.9934V12.8134L68.2686 13.5534L68.7286 15.4134V19.1734C68.7286 20.9134 67.5286 21.9334 66.0686 21.9334C64.6286 21.9334 63.7686 21.0334 63.7686 19.5334V12.8134L61.3086 13.5534L61.7686 15.4134V19.7534C61.7686 21.8334 63.1086 23.2734 65.2686 23.2734C67.1286 23.2734 68.3686 22.3534 68.8686 21.0734L69.0486 22.9734H71.3086ZM82.8841 17.6534C82.8841 14.7734 80.9241 12.8734 78.1241 12.8734C75.3241 12.8734 73.1041 14.8734 73.1041 18.0934C73.1041 21.6534 75.6641 23.2934 78.5441 23.2934C80.4041 23.2934 81.5641 22.8134 82.2441 22.4734L82.4641 21.1134C81.3441 21.5734 80.4241 21.8534 78.8441 21.8534C76.7641 21.8534 75.3441 20.7334 75.1641 18.5934H82.8241C82.8441 18.3334 82.8841 18.0134 82.8841 17.6534ZM78.1041 14.2934C79.7241 14.2934 80.8441 15.3734 80.9641 17.2734H75.1841C75.4441 15.2934 76.5841 14.2934 78.1041 14.2934Z" fill="#2C2F35"/>
</svg>
