<svg width="82" height="31" viewBox="0 0 82 31" fill="none" xmlns="http://www.w3.org/2000/svg">
<path d="M11.9375 25.7969C17.4605 25.7969 21.9375 21.3199 21.9375 15.7969C21.9375 10.2739 17.4605 5.79688 11.9375 5.79688C6.4145 5.79688 1.9375 10.2739 1.9375 15.7969C1.9375 21.3199 6.4145 25.7969 11.9375 25.7969Z" stroke="url(#paint0_linear_264_329)" stroke-width="2" stroke-linecap="round" stroke-linejoin="round"/>
<path d="M11.9375 15.2969C12.6005 15.2969 13.2364 15.0335 13.7053 14.5646C14.1741 14.0958 14.4375 13.4599 14.4375 12.7969C14.4375 12.1338 14.1741 11.4979 13.7053 11.0291C13.2364 10.5603 12.6005 10.2969 11.9375 10.2969C11.2745 10.2969 10.6386 10.5603 10.1697 11.0291C9.70089 11.4979 9.4375 12.1338 9.4375 12.7969C9.4375 13.4599 9.70089 14.0958 10.1697 14.5646C10.6386 15.0335 11.2745 15.2969 11.9375 15.2969Z" stroke="url(#paint1_linear_264_329)" stroke-width="2" stroke-linejoin="round"/>
<path d="M4.94824 22.9629C5.12024 20.3574 7.28824 18.2969 9.93724 18.2969H13.9372C16.5827 18.2969 18.7487 20.3519 18.9257 22.9524" stroke="url(#paint2_linear_264_329)" stroke-width="2" stroke-linecap="round" stroke-linejoin="round"/>
<path d="M44.4775 23.1769C48.4975 23.1769 51.1375 20.5569 51.1375 16.1369C51.1375 11.7369 48.4975 9.15687 44.4775 9.15687C40.4575 9.15687 37.8175 11.7369 37.8175 16.1369C37.8175 20.5569 40.5575 23.1769 44.4775 23.1769ZM44.4575 21.6169C41.8175 21.6169 39.9775 19.7369 39.9775 16.1369C39.9775 12.5369 41.8375 10.6969 44.4975 10.6969C47.1375 10.6969 48.9975 12.5369 48.9975 16.1369C48.9975 19.7369 47.1175 21.6169 44.4575 21.6169ZM56.1356 22.7969H58.4556L61.0356 14.8969L63.5956 22.7969H65.8156L69.3556 12.9969H67.1556L66.9356 14.7369L64.7956 21.0569L62.1956 12.9969H59.9956L57.3956 21.0769L55.2356 14.7369L55.0356 12.9969H52.4756L56.1356 22.7969ZM78.1286 22.7969H80.6886L80.3686 20.9369V16.2369C80.3686 14.1569 79.0286 12.7169 76.8086 12.7169C75.0286 12.7169 73.6886 13.7169 73.1886 15.0169V12.6369L70.8486 13.3769L71.2886 15.2369V20.9369L70.9886 22.7969H73.5486L73.2886 20.9369V17.1369C73.2886 15.3969 74.4886 14.2569 76.0086 14.2569C77.5086 14.2569 78.3686 15.1569 78.3686 16.6569V20.9369L78.1286 22.7969Z" fill="url(#paint3_linear_264_329)"/>
<defs>
<linearGradient id="paint0_linear_264_329" x1="11.9375" y1="5.79688" x2="11.9375" y2="25.7969" gradientUnits="userSpaceOnUse">
<stop stop-color="#AC8EFF"/>
<stop offset="1" stop-color="#FF35E4"/>
</linearGradient>
<linearGradient id="paint1_linear_264_329" x1="11.9375" y1="10.2969" x2="11.9375" y2="15.2969" gradientUnits="userSpaceOnUse">
<stop stop-color="#AC8EFF"/>
<stop offset="1" stop-color="#FF35E4"/>
</linearGradient>
<linearGradient id="paint2_linear_264_329" x1="11.937" y1="18.2969" x2="11.937" y2="22.9629" gradientUnits="userSpaceOnUse">
<stop stop-color="#AC8EFF"/>
<stop offset="1" stop-color="#FF35E4"/>
</linearGradient>
<linearGradient id="paint3_linear_264_329" x1="59.4375" y1="0.796875" x2="59.4375" y2="30.7969" gradientUnits="userSpaceOnUse">
<stop stop-color="#AC8EFF"/>
<stop offset="1" stop-color="#FF35E4"/>
</linearGradient>
</defs>
</svg>
