<svg width="140" height="31" viewBox="0 0 140 31" fill="none" xmlns="http://www.w3.org/2000/svg">
<path d="M2.727 8.95336C1.974 8.95336 1.364 9.55036 1.364 10.2874V20.9534C1.364 21.6904 1.974 22.2874 2.727 22.2874H17.273C18.026 22.2874 18.636 21.6904 18.636 20.9534V10.2874C18.636 9.55036 18.026 8.95336 17.273 8.95336H2.727ZM17.273 7.62036C18.779 7.62036 20 8.81436 20 10.2874V20.9534C20 22.4264 18.779 23.6204 17.273 23.6204H2.727C1.221 23.6204 0 22.4264 0 20.9534V10.2874C0 8.81436 1.221 7.62036 2.727 7.62036H17.273ZM8.167 18.7534H4C3.9114 18.7523 3.82347 18.7687 3.74123 18.8017C3.65898 18.8346 3.58405 18.8835 3.5207 18.9455C3.45736 19.0074 3.40685 19.0812 3.37207 19.1627C3.33729 19.2442 3.31891 19.3318 3.318 19.4204C3.318 19.7884 3.623 20.0874 4 20.0874H8.167C8.25551 20.0883 8.34334 20.0718 8.42547 20.0387C8.5076 20.0057 8.58241 19.9568 8.64565 19.8949C8.70889 19.833 8.75931 19.7592 8.79403 19.6778C8.82874 19.5963 8.84708 19.5089 8.848 19.4204C8.84708 19.3318 8.82874 19.2444 8.79403 19.163C8.75931 19.0815 8.70889 19.0077 8.64565 18.9458C8.58241 18.8839 8.5076 18.835 8.42547 18.802C8.34334 18.769 8.25551 18.7524 8.167 18.7534ZM13.75 10.9534C12.226 10.9534 10.985 12.1444 10.985 13.6204C10.985 14.3934 11.325 15.0884 11.869 15.5754C10.839 16.1834 10.152 17.2784 10.152 18.5294C10.152 18.8864 10.208 19.2374 10.317 19.5724C10.432 19.9224 10.816 20.1164 11.174 20.0044C11.2585 19.979 11.3371 19.9372 11.4052 19.8811C11.4733 19.8251 11.5296 19.7561 11.5708 19.6781C11.6119 19.6001 11.6371 19.5146 11.6449 19.4268C11.6526 19.3389 11.6428 19.2504 11.616 19.1664C11.5492 18.9607 11.5154 18.7456 11.516 18.5294C11.516 17.3544 12.513 16.3964 13.75 16.3964C14.987 16.3964 15.985 17.3544 15.985 18.5294C15.985 18.7024 15.964 18.8714 15.922 19.0354C15.9009 19.1211 15.8971 19.2101 15.9107 19.2973C15.9244 19.3845 15.9552 19.4682 16.0015 19.5433C16.0477 19.6185 16.1084 19.6838 16.1801 19.7353C16.2518 19.7868 16.333 19.8235 16.419 19.8434C16.5929 19.887 16.777 19.8605 16.9315 19.7696C17.0861 19.6786 17.1987 19.5306 17.245 19.3574C17.314 19.0874 17.348 18.8104 17.348 18.5294C17.348 17.2784 16.661 16.1834 15.631 15.5734C16.175 15.0884 16.515 14.3934 16.515 13.6204C16.515 12.1444 15.275 10.9534 13.75 10.9534ZM8.167 15.2534H4C3.9114 15.2523 3.82347 15.2687 3.74123 15.3017C3.65898 15.3346 3.58405 15.3835 3.5207 15.4455C3.45736 15.5074 3.40685 15.5812 3.37207 15.6627C3.33729 15.7442 3.31891 15.8318 3.318 15.9204C3.318 16.2884 3.623 16.5874 4 16.5874H8.167C8.25551 16.5883 8.34334 16.5718 8.42547 16.5387C8.5076 16.5057 8.58241 16.4568 8.64565 16.3949C8.70889 16.333 8.75931 16.2592 8.79403 16.1778C8.82874 16.0963 8.84708 16.0089 8.848 15.9204C8.84708 15.8318 8.82874 15.7444 8.79403 15.663C8.75931 15.5815 8.70889 15.5077 8.64565 15.4458C8.58241 15.3839 8.5076 15.335 8.42547 15.302C8.34334 15.269 8.25551 15.2524 8.167 15.2534ZM13.75 12.2874C14.527 12.2874 15.152 12.8874 15.152 13.6204C15.152 14.3544 14.527 14.9534 13.75 14.9534C12.973 14.9534 12.348 14.3534 12.348 13.6204C12.348 12.8864 12.973 12.2874 13.75 12.2874ZM8.167 11.7534H4C3.9114 11.7523 3.82347 11.7687 3.74123 11.8017C3.65898 11.8347 3.58405 11.8835 3.5207 11.9455C3.45736 12.0074 3.40685 12.0812 3.37207 12.1627C3.33729 12.2442 3.31891 12.3318 3.318 12.4204C3.318 12.7884 3.623 13.0874 4 13.0874H8.167C8.25551 13.0883 8.34334 13.0718 8.42547 13.0387C8.5076 13.0057 8.58241 12.9568 8.64565 12.8949C8.70889 12.833 8.75931 12.7592 8.79403 12.6778C8.82874 12.5963 8.84708 12.5089 8.848 12.4204C8.84708 12.3318 8.82874 12.2444 8.79403 12.163C8.75931 12.0815 8.70889 12.0077 8.64565 11.9458C8.58241 11.8839 8.5076 11.835 8.42547 11.802C8.34334 11.769 8.25551 11.7524 8.167 11.7534Z" fill="#2C2F35"/>
<path d="M45.44 9.34036L45.14 11.2004L41.54 20.7404L38.02 11.2004L37.72 9.34036H35.1L40.26 22.6204H42.44L47.74 9.34036H45.44ZM57.0677 17.3004C57.0677 14.4204 55.1077 12.5204 52.3077 12.5204C49.5077 12.5204 47.2877 14.5204 47.2877 17.7404C47.2877 21.3004 49.8477 22.9404 52.7277 22.9404C54.5877 22.9404 55.7477 22.4604 56.4277 22.1204L56.6477 20.7604C55.5277 21.2204 54.6077 21.5004 53.0277 21.5004C50.9477 21.5004 49.5277 20.3804 49.3477 18.2404H57.0077C57.0277 17.9804 57.0677 17.6604 57.0677 17.3004ZM52.2877 13.9404C53.9077 13.9404 55.0277 15.0204 55.1477 16.9204H49.3677C49.6277 14.9404 50.7677 13.9404 52.2877 13.9404ZM64.8673 12.5404C62.9673 12.5404 61.7873 13.6404 61.3073 15.4804L61.3473 12.4604L59.0673 13.2004L59.5073 15.0604V20.7604L59.2073 22.6204H62.0473L61.5073 20.7604L61.5273 17.4804C61.6673 15.1804 63.0673 14.4204 64.3073 14.4204C64.6673 14.4204 64.9073 14.4804 65.2673 14.5604V12.5604C65.1273 12.5404 64.9873 12.5404 64.8673 12.5404ZM68.2794 11.0204L69.9994 9.54036L68.2794 8.04036L66.5594 9.54036L68.2794 11.0204ZM67.0394 22.6204H69.6794L69.3594 20.7604V12.4604L66.8994 13.2004L67.3594 15.0604V20.7604L67.0394 22.6204ZM80.4427 12.4604L78.5827 13.0204H74.7627V11.7804C74.7627 10.6204 75.4027 9.58036 76.9827 9.58036C77.1027 9.58036 77.2227 9.58036 77.3427 9.60036L79.3627 10.6804L80.9627 9.24036C80.1227 8.92036 78.5827 8.44036 76.9027 8.44036C73.9627 8.44036 72.7827 10.1404 72.7827 11.8804V13.0204H70.9827V14.3004H72.7827V20.7604L72.4627 22.6204H75.1227L74.7827 20.7604V14.3004H78.2627L78.4427 15.0604V20.7604L78.1227 22.6204H80.7627L80.4427 20.7604V12.4604ZM87.5806 22.9404C88.8406 22.9404 90.1606 22.5804 91.0406 22.0404L91.2806 20.5604C90.2006 21.1804 89.1006 21.5004 88.0006 21.5004C85.8806 21.5004 84.6806 20.1804 84.6806 17.6804C84.6806 15.3004 85.9006 13.8404 87.7606 13.8404C88.2606 13.8404 88.7606 13.9204 89.2406 14.0604L91.1606 15.0604L90.8606 13.1404C90.0606 12.7604 88.8006 12.5004 87.6806 12.5004C84.4406 12.5004 82.5806 14.6404 82.5806 17.7204C82.5806 20.9204 84.3406 22.9404 87.5806 22.9404ZM96.4303 22.9204C98.3303 22.9204 99.3303 21.8004 99.7103 20.9404L99.8903 22.6204H102.15L101.57 20.6204V16.6004C101.57 13.8004 100.01 12.5204 97.2303 12.5204C95.8503 12.5204 94.7303 12.7404 93.8503 13.0204L93.5503 15.0804L95.4503 14.1404C95.8503 14.0404 96.2503 13.9604 96.8503 13.9604C98.6503 13.9604 99.6103 14.8804 99.6103 16.5004V17.5804C99.0303 17.0604 98.0503 16.4204 96.4903 16.4204C94.2903 16.4204 92.9503 17.8604 92.9503 19.7004C92.9503 21.5204 94.2903 22.9204 96.4303 22.9204ZM97.1303 21.5404C95.7903 21.5404 94.9703 20.7204 94.9703 19.6204C94.9703 18.5204 95.7503 17.7204 97.0903 17.7204C98.0703 17.7204 98.9103 18.0804 99.6303 18.7004V18.9204C99.6303 20.5604 98.4903 21.5404 97.1303 21.5404ZM107.299 22.9004C108.299 22.9004 109.019 22.7004 109.699 22.4604L109.959 20.9004C109.119 21.1404 108.479 21.2404 107.899 21.2404C107.099 21.2404 106.659 20.8204 106.659 20.0204V14.1404H109.819V12.8204H106.659V10.4004H106.499L102.819 14.0604V14.1404H104.659V20.3004C104.659 21.9604 105.559 22.9004 107.299 22.9004ZM112.713 11.0204L114.433 9.54036L112.713 8.04036L110.993 9.54036L112.713 11.0204ZM111.473 22.6204H114.113L113.793 20.7604V12.4604L111.333 13.2004L111.793 15.0604V20.7604L111.473 22.6204ZM121.356 22.9404C124.356 22.9404 126.596 20.9804 126.596 17.7004C126.596 14.4404 124.376 12.5004 121.356 12.5004C118.336 12.5004 116.096 14.4404 116.096 17.7004C116.096 20.9804 118.416 22.9404 121.356 22.9404ZM121.336 21.5004C119.476 21.5004 118.196 20.2204 118.196 17.7004C118.196 15.2004 119.476 13.9204 121.356 13.9204C123.236 13.9204 124.496 15.2004 124.496 17.7004C124.496 20.2204 123.216 21.5004 121.336 21.5004ZM135.859 22.6204H138.419L138.099 20.7604V16.0604C138.099 13.9804 136.759 12.5404 134.539 12.5404C132.759 12.5404 131.419 13.5404 130.919 14.8404V12.4604L128.579 13.2004L129.019 15.0604V20.7604L128.719 22.6204H131.279L131.019 20.7604V16.9604C131.019 15.2204 132.219 14.0804 133.739 14.0804C135.239 14.0804 136.099 14.9804 136.099 16.4804V20.7604L135.859 22.6204Z" fill="#2C2F35"/>
</svg>
