<svg width="140" height="31" viewBox="0 0 140 31" fill="none" xmlns="http://www.w3.org/2000/svg">
<path d="M2.727 8.95312C1.974 8.95312 1.364 9.55012 1.364 10.2871V20.9531C1.364 21.6901 1.974 22.2871 2.727 22.2871H17.273C18.026 22.2871 18.636 21.6901 18.636 20.9531V10.2871C18.636 9.55012 18.026 8.95312 17.273 8.95312H2.727V8.95312ZM17.273 7.62012C18.779 7.62012 20 8.81412 20 10.2871V20.9531C20 22.4261 18.779 23.6201 17.273 23.6201H2.727C1.221 23.6201 0 22.4261 0 20.9531V10.2871C0 8.81412 1.221 7.62012 2.727 7.62012H17.273ZM8.167 18.7531H4C3.9114 18.7521 3.82347 18.7685 3.74123 18.8014C3.65898 18.8344 3.58405 18.8833 3.5207 18.9452C3.45736 19.0072 3.40685 19.081 3.37207 19.1625C3.33729 19.244 3.31891 19.3315 3.318 19.4201C3.318 19.7881 3.623 20.0871 4 20.0871H8.167C8.25551 20.088 8.34334 20.0715 8.42547 20.0385C8.50759 20.0055 8.58241 19.9566 8.64565 19.8947C8.70889 19.8327 8.75931 19.7589 8.79403 19.6775C8.82874 19.5961 8.84709 19.5086 8.848 19.4201C8.84709 19.3316 8.82874 19.2441 8.79403 19.1627C8.75931 19.0813 8.70889 19.0075 8.64565 18.9456C8.58241 18.8836 8.50759 18.8348 8.42547 18.8017C8.34334 18.7687 8.25551 18.7522 8.167 18.7531V18.7531ZM13.75 10.9531C12.226 10.9531 10.985 12.1441 10.985 13.6201C10.985 14.3931 11.325 15.0881 11.869 15.5751C10.839 16.1831 10.152 17.2781 10.152 18.5291C10.152 18.8861 10.208 19.2371 10.317 19.5721C10.432 19.9221 10.816 20.1161 11.174 20.0041C11.2585 19.9788 11.3371 19.9369 11.4052 19.8809C11.4733 19.8249 11.5296 19.7558 11.5708 19.6778C11.6119 19.5998 11.6371 19.5144 11.6449 19.4265C11.6526 19.3387 11.6428 19.2501 11.616 19.1661C11.5492 18.9604 11.5154 18.7454 11.516 18.5291C11.516 17.3541 12.513 16.3961 13.75 16.3961C14.987 16.3961 15.985 17.3541 15.985 18.5291C15.985 18.7021 15.964 18.8711 15.922 19.0351C15.9009 19.1208 15.8971 19.2099 15.9107 19.2971C15.9244 19.3843 15.9552 19.4679 16.0015 19.5431C16.0477 19.6183 16.1084 19.6835 16.1801 19.735C16.2518 19.7865 16.333 19.8233 16.419 19.8431C16.5929 19.8867 16.777 19.8602 16.9315 19.7693C17.0861 19.6784 17.1987 19.5303 17.245 19.3571C17.314 19.0871 17.348 18.8101 17.348 18.5291C17.348 17.2781 16.661 16.1831 15.631 15.5731C16.175 15.0881 16.515 14.3931 16.515 13.6201C16.515 12.1441 15.275 10.9531 13.75 10.9531V10.9531ZM8.167 15.2531H4C3.9114 15.2521 3.82347 15.2685 3.74123 15.3014C3.65898 15.3344 3.58405 15.3833 3.5207 15.4452C3.45736 15.5072 3.40685 15.581 3.37207 15.6625C3.33729 15.744 3.31891 15.8315 3.318 15.9201C3.318 16.2881 3.623 16.5871 4 16.5871H8.167C8.25551 16.588 8.34334 16.5715 8.42547 16.5385C8.50759 16.5055 8.58241 16.4566 8.64565 16.3947C8.70889 16.3327 8.75931 16.2589 8.79403 16.1775C8.82874 16.0961 8.84709 16.0086 8.848 15.9201C8.84709 15.8316 8.82874 15.7441 8.79403 15.6627C8.75931 15.5813 8.70889 15.5075 8.64565 15.4456C8.58241 15.3836 8.50759 15.3348 8.42547 15.3017C8.34334 15.2687 8.25551 15.2522 8.167 15.2531V15.2531ZM13.75 12.2871C14.527 12.2871 15.152 12.8871 15.152 13.6201C15.152 14.3541 14.527 14.9531 13.75 14.9531C12.973 14.9531 12.348 14.3531 12.348 13.6201C12.348 12.8861 12.973 12.2871 13.75 12.2871V12.2871ZM8.167 11.7531H4C3.9114 11.7521 3.82347 11.7685 3.74123 11.8014C3.65898 11.8344 3.58405 11.8833 3.5207 11.9452C3.45736 12.0072 3.40685 12.081 3.37207 12.1625C3.33729 12.244 3.31891 12.3315 3.318 12.4201C3.318 12.7881 3.623 13.0871 4 13.0871H8.167C8.25551 13.088 8.34334 13.0715 8.42547 13.0385C8.50759 13.0055 8.58241 12.9566 8.64565 12.8947C8.70889 12.8327 8.75931 12.7589 8.79403 12.6775C8.82874 12.5961 8.84709 12.5086 8.848 12.4201C8.84709 12.3316 8.82874 12.2441 8.79403 12.1627C8.75931 12.0813 8.70889 12.0075 8.64565 11.9456C8.58241 11.8836 8.50759 11.8348 8.42547 11.8017C8.34334 11.7687 8.25551 11.7522 8.167 11.7531V11.7531Z" fill="url(#paint0_linear_264_344)"/>
<path d="M45.44 9.34012L45.14 11.2001L41.54 20.7401L38.02 11.2001L37.72 9.34012H35.1L40.26 22.6201H42.44L47.74 9.34012H45.44ZM57.0677 17.3001C57.0677 14.4201 55.1077 12.5201 52.3077 12.5201C49.5077 12.5201 47.2877 14.5201 47.2877 17.7401C47.2877 21.3001 49.8477 22.9401 52.7277 22.9401C54.5877 22.9401 55.7477 22.4601 56.4277 22.1201L56.6477 20.7601C55.5277 21.2201 54.6077 21.5001 53.0277 21.5001C50.9477 21.5001 49.5277 20.3801 49.3477 18.2401H57.0077C57.0277 17.9801 57.0677 17.6601 57.0677 17.3001ZM52.2877 13.9401C53.9077 13.9401 55.0277 15.0201 55.1477 16.9201H49.3677C49.6277 14.9401 50.7677 13.9401 52.2877 13.9401ZM64.8673 12.5401C62.9673 12.5401 61.7873 13.6401 61.3073 15.4801L61.3473 12.4601L59.0673 13.2001L59.5073 15.0601V20.7601L59.2073 22.6201H62.0473L61.5073 20.7601L61.5273 17.4801C61.6673 15.1801 63.0673 14.4201 64.3073 14.4201C64.6673 14.4201 64.9073 14.4801 65.2673 14.5601V12.5601C65.1273 12.5401 64.9873 12.5401 64.8673 12.5401ZM68.2794 11.0201L69.9994 9.54012L68.2794 8.04012L66.5594 9.54012L68.2794 11.0201ZM67.0394 22.6201H69.6794L69.3594 20.7601V12.4601L66.8994 13.2001L67.3594 15.0601V20.7601L67.0394 22.6201ZM80.4427 12.4601L78.5827 13.0201H74.7627V11.7801C74.7627 10.6201 75.4027 9.58012 76.9827 9.58012C77.1027 9.58012 77.2227 9.58012 77.3427 9.60012L79.3627 10.6801L80.9627 9.24012C80.1227 8.92012 78.5827 8.44012 76.9027 8.44012C73.9627 8.44012 72.7827 10.1401 72.7827 11.8801V13.0201H70.9827V14.3001H72.7827V20.7601L72.4627 22.6201H75.1227L74.7827 20.7601V14.3001H78.2627L78.4427 15.0601V20.7601L78.1227 22.6201H80.7627L80.4427 20.7601V12.4601ZM87.5806 22.9401C88.8406 22.9401 90.1606 22.5801 91.0406 22.0401L91.2806 20.5601C90.2006 21.1801 89.1006 21.5001 88.0006 21.5001C85.8806 21.5001 84.6806 20.1801 84.6806 17.6801C84.6806 15.3001 85.9006 13.8401 87.7606 13.8401C88.2606 13.8401 88.7606 13.9201 89.2406 14.0601L91.1606 15.0601L90.8606 13.1401C90.0606 12.7601 88.8006 12.5001 87.6806 12.5001C84.4406 12.5001 82.5806 14.6401 82.5806 17.7201C82.5806 20.9201 84.3406 22.9401 87.5806 22.9401ZM96.4303 22.9201C98.3303 22.9201 99.3303 21.8001 99.7103 20.9401L99.8903 22.6201H102.15L101.57 20.6201V16.6001C101.57 13.8001 100.01 12.5201 97.2303 12.5201C95.8503 12.5201 94.7303 12.7401 93.8503 13.0201L93.5503 15.0801L95.4503 14.1401C95.8503 14.0401 96.2503 13.9601 96.8503 13.9601C98.6503 13.9601 99.6103 14.8801 99.6103 16.5001V17.5801C99.0303 17.0601 98.0503 16.4201 96.4903 16.4201C94.2903 16.4201 92.9503 17.8601 92.9503 19.7001C92.9503 21.5201 94.2903 22.9201 96.4303 22.9201ZM97.1303 21.5401C95.7903 21.5401 94.9703 20.7201 94.9703 19.6201C94.9703 18.5201 95.7503 17.7201 97.0903 17.7201C98.0703 17.7201 98.9103 18.0801 99.6303 18.7001V18.9201C99.6303 20.5601 98.4903 21.5401 97.1303 21.5401ZM107.299 22.9001C108.299 22.9001 109.019 22.7001 109.699 22.4601L109.959 20.9001C109.119 21.1401 108.479 21.2401 107.899 21.2401C107.099 21.2401 106.659 20.8201 106.659 20.0201V14.1401H109.819V12.8201H106.659V10.4001H106.499L102.819 14.0601V14.1401H104.659V20.3001C104.659 21.9601 105.559 22.9001 107.299 22.9001ZM112.713 11.0201L114.433 9.54012L112.713 8.04012L110.993 9.54012L112.713 11.0201ZM111.473 22.6201H114.113L113.793 20.7601V12.4601L111.333 13.2001L111.793 15.0601V20.7601L111.473 22.6201ZM121.356 22.9401C124.356 22.9401 126.596 20.9801 126.596 17.7001C126.596 14.4401 124.376 12.5001 121.356 12.5001C118.336 12.5001 116.096 14.4401 116.096 17.7001C116.096 20.9801 118.416 22.9401 121.356 22.9401ZM121.336 21.5001C119.476 21.5001 118.196 20.2201 118.196 17.7001C118.196 15.2001 119.476 13.9201 121.356 13.9201C123.236 13.9201 124.496 15.2001 124.496 17.7001C124.496 20.2201 123.216 21.5001 121.336 21.5001ZM135.859 22.6201H138.419L138.099 20.7601V16.0601C138.099 13.9801 136.759 12.5401 134.539 12.5401C132.759 12.5401 131.419 13.5401 130.919 14.8401V12.4601L128.579 13.2001L129.019 15.0601V20.7601L128.719 22.6201H131.279L131.019 20.7601V16.9601C131.019 15.2201 132.219 14.0801 133.739 14.0801C135.239 14.0801 136.099 14.9801 136.099 16.4801V20.7601L135.859 22.6201Z" fill="url(#paint1_linear_264_344)"/>
<defs>
<linearGradient id="paint0_linear_264_344" x1="10" y1="7.62012" x2="10" y2="23.6201" gradientUnits="userSpaceOnUse">
<stop stop-color="#AC8EFF"/>
<stop offset="1" stop-color="#FF35E4"/>
</linearGradient>
<linearGradient id="paint1_linear_264_344" x1="87.5" y1="0.620117" x2="87.5" y2="30.6201" gradientUnits="userSpaceOnUse">
<stop stop-color="#AC8EFF"/>
<stop offset="1" stop-color="#FF35E4"/>
</linearGradient>
</defs>
</svg>
