<svg width="60" height="66" viewBox="0 0 60 66" fill="none" xmlns="http://www.w3.org/2000/svg">
<path fill-rule="evenodd" clip-rule="evenodd" d="M59.6976 52.3969C55.6013 58.0349 49.8254 62.2314 43.1976 64.3849C36.5697 66.5384 29.4303 66.5384 22.8024 64.3849C16.1746 62.2314 10.3987 58.0349 6.30244 52.3969C2.20621 46.7589 -1.44e-06 39.9689 0 33C1.44e-06 26.0311 2.20622 19.2411 6.30245 13.6031C10.3987 7.96511 16.1746 3.76864 22.8025 1.61513C29.4303 -0.53838 36.5697 -0.538377 43.1976 1.61514C49.8254 3.76866 55.6014 7.96513 59.6976 13.6031L33 33L59.6976 52.3969ZM30.9377 61.8749C23.2796 61.8749 15.9351 58.8327 10.52 53.4176C8.60621 51.5038 6.98883 49.3491 5.69736 47.0247H30.9377L30.9377 61.8749ZM3.95654 43.285C2.71618 40.0312 2.06268 36.5492 2.06268 32.9998C2.06268 29.2901 2.77658 25.6539 4.12829 22.275H26.7173L3.95654 43.285ZM30.9377 22.8703V32.9998L30.9377 43.7247H8.34545L30.9377 22.8703ZM30.9377 18.975H5.69738C6.98884 16.6506 8.60622 14.4959 10.52 12.5821C15.9351 7.16701 23.2796 4.12483 30.9377 4.12483V18.975Z" fill="url(#paint0_linear_139_1922)"/>
<defs>
<linearGradient id="paint0_linear_139_1922" x1="29.8488" y1="0" x2="29.8488" y2="66" gradientUnits="userSpaceOnUse">
<stop stop-color="#AC8EFF"/>
<stop offset="1" stop-color="#FF35E4"/>
</linearGradient>
</defs>
</svg>
